<?xml version="1.0" encoding="utf-8"?>
<!-- Generator: Adobe Illustrator 16.0.4, SVG Export Plug-In . SVG Version: 6.00 Build 0)  -->
<!DOCTYPE svg PUBLIC "-//W3C//DTD SVG 1.1//EN" "http://www.w3.org/Graphics/SVG/1.1/DTD/svg11.dtd">
<svg version="1.1" id="Layer_1" xmlns="http://www.w3.org/2000/svg" xmlns:xlink="http://www.w3.org/1999/xlink" x="0px" y="0px"
	 width="300px" height="300px" viewBox="0 0 300 300" enable-background="new 0 0 300 300" xml:space="preserve">
<g>
	<g>
		<ellipse fill="#FFFFFF" stroke="#000000" stroke-miterlimit="10" cx="43.5" cy="74.5" rx="24" ry="3.571"/>
		<path fill="#FFFFFF" stroke="#000000" stroke-miterlimit="10" d="M67.5,168.499c0,1.973-10.745,3.572-24,3.572
			c-13.254,0-24-1.6-24-3.572"/>
		<line fill="#FFFFFF" stroke="#000000" stroke-miterlimit="10" x1="19.5" y1="75" x2="19.5" y2="169"/>
		<line fill="#FFFFFF" stroke="#000000" stroke-miterlimit="10" x1="67.5" y1="75" x2="67.5" y2="169"/>
	</g>
	<g>
		<ellipse fill="#FFFFFF" stroke="#000000" stroke-miterlimit="10" cx="115.5" cy="130.499" rx="24" ry="3.572"/>
		<path fill="#FFFFFF" stroke="#000000" stroke-miterlimit="10" d="M139.5,224.499c0,1.973-10.745,3.572-24,3.572
			c-13.254,0-24-1.6-24-3.572"/>
		<line fill="#FFFFFF" stroke="#000000" stroke-miterlimit="10" x1="91.5" y1="131" x2="91.5" y2="225"/>
		<line fill="#FFFFFF" stroke="#000000" stroke-miterlimit="10" x1="139.5" y1="131" x2="139.5" y2="225"/>
	</g>
	<g>
		<ellipse fill="#FFFFFF" stroke="#000000" stroke-miterlimit="10" cx="188.5" cy="71.499" rx="24" ry="3.572"/>
		<path fill="#FFFFFF" stroke="#000000" stroke-miterlimit="10" d="M212.5,165.499c0,1.973-10.745,3.572-24,3.572s-24-1.6-24-3.572"
			/>
		<line fill="#FFFFFF" stroke="#000000" stroke-miterlimit="10" x1="164.5" y1="72" x2="164.5" y2="166"/>
		<line fill="#FFFFFF" stroke="#000000" stroke-miterlimit="10" x1="212.5" y1="72" x2="212.5" y2="166"/>
	</g>
	<g>
		<ellipse fill="#FFFFFF" stroke="#000000" stroke-miterlimit="10" cx="256.5" cy="134.499" rx="24" ry="3.572"/>
		<path fill="#FFFFFF" stroke="#000000" stroke-miterlimit="10" d="M280.5,228.499c0,1.973-10.745,3.572-24,3.572s-24-1.6-24-3.572"
			/>
		<line fill="#FFFFFF" stroke="#000000" stroke-miterlimit="10" x1="232.5" y1="135" x2="232.5" y2="229"/>
		<line fill="#FFFFFF" stroke="#000000" stroke-miterlimit="10" x1="280.5" y1="135" x2="280.5" y2="229"/>
	</g>
</g>
<g>
	<g>
		
			<line fill="#FFFFFF" stroke="#000000" stroke-width="2" stroke-linejoin="bevel" stroke-miterlimit="10" x1="32" y1="91" x2="55" y2="91"/>
		<line fill="#FFFFFF" stroke="#000000" stroke-linejoin="bevel" stroke-miterlimit="10" x1="32" y1="96.5" x2="55" y2="96.5"/>
		
			<line fill="#FFFFFF" stroke="#000000" stroke-width="2" stroke-linejoin="bevel" stroke-miterlimit="10" x1="32" y1="102" x2="55" y2="102"/>
		<line fill="#FFFFFF" stroke="#000000" stroke-linejoin="bevel" stroke-miterlimit="10" x1="32" y1="107.5" x2="55" y2="107.5"/>
	</g>
	<g>
		
			<line fill="#FFFFFF" stroke="#000000" stroke-width="2" stroke-linejoin="bevel" stroke-miterlimit="10" x1="32" y1="112" x2="55" y2="112"/>
		<line fill="#FFFFFF" stroke="#000000" stroke-linejoin="bevel" stroke-miterlimit="10" x1="32" y1="117.5" x2="55" y2="117.5"/>
		
			<line fill="#FFFFFF" stroke="#000000" stroke-width="2" stroke-linejoin="bevel" stroke-miterlimit="10" x1="32" y1="123" x2="55" y2="123"/>
		<line fill="#FFFFFF" stroke="#000000" stroke-linejoin="bevel" stroke-miterlimit="10" x1="32" y1="128.5" x2="55" y2="128.5"/>
	</g>
	<g>
		
			<line fill="#FFFFFF" stroke="#000000" stroke-width="2" stroke-linejoin="bevel" stroke-miterlimit="10" x1="32" y1="133" x2="55" y2="133"/>
		<line fill="#FFFFFF" stroke="#000000" stroke-linejoin="bevel" stroke-miterlimit="10" x1="32" y1="138.5" x2="55" y2="138.5"/>
		
			<line fill="#FFFFFF" stroke="#000000" stroke-width="2" stroke-linejoin="bevel" stroke-miterlimit="10" x1="32" y1="144" x2="55" y2="144"/>
		<line fill="#FFFFFF" stroke="#000000" stroke-linejoin="bevel" stroke-miterlimit="10" x1="32" y1="149.5" x2="55" y2="149.5"/>
		
			<line fill="#FFFFFF" stroke="#000000" stroke-width="2" stroke-linejoin="bevel" stroke-miterlimit="10" x1="32" y1="154" x2="55" y2="154"/>
		<line fill="#FFFFFF" stroke="#000000" stroke-linejoin="bevel" stroke-miterlimit="10" x1="32" y1="159.5" x2="55" y2="159.5"/>
	</g>
</g>
<g>
	<g>
		
			<line fill="#FFFFFF" stroke="#000000" stroke-width="2" stroke-linejoin="bevel" stroke-miterlimit="10" x1="104" y1="146" x2="127" y2="146"/>
		<line fill="#FFFFFF" stroke="#000000" stroke-linejoin="bevel" stroke-miterlimit="10" x1="104" y1="151.5" x2="127" y2="151.5"/>
		
			<line fill="#FFFFFF" stroke="#000000" stroke-width="2" stroke-linejoin="bevel" stroke-miterlimit="10" x1="104" y1="157" x2="127" y2="157"/>
		<line fill="#FFFFFF" stroke="#000000" stroke-linejoin="bevel" stroke-miterlimit="10" x1="104" y1="162.5" x2="127" y2="162.5"/>
	</g>
	<g>
		
			<line fill="#FFFFFF" stroke="#000000" stroke-width="2" stroke-linejoin="bevel" stroke-miterlimit="10" x1="104" y1="167" x2="127" y2="167"/>
		<line fill="#FFFFFF" stroke="#000000" stroke-linejoin="bevel" stroke-miterlimit="10" x1="104" y1="172.5" x2="127" y2="172.5"/>
		
			<line fill="#FFFFFF" stroke="#000000" stroke-width="2" stroke-linejoin="bevel" stroke-miterlimit="10" x1="104" y1="178" x2="127" y2="178"/>
		<line fill="#FFFFFF" stroke="#000000" stroke-linejoin="bevel" stroke-miterlimit="10" x1="104" y1="183.5" x2="127" y2="183.5"/>
	</g>
	<g>
		
			<line fill="#FFFFFF" stroke="#000000" stroke-width="2" stroke-linejoin="bevel" stroke-miterlimit="10" x1="104" y1="188" x2="127" y2="188"/>
		<line fill="#FFFFFF" stroke="#000000" stroke-linejoin="bevel" stroke-miterlimit="10" x1="104" y1="193.5" x2="127" y2="193.5"/>
		
			<line fill="#FFFFFF" stroke="#000000" stroke-width="2" stroke-linejoin="bevel" stroke-miterlimit="10" x1="104" y1="199" x2="127" y2="199"/>
		<line fill="#FFFFFF" stroke="#000000" stroke-linejoin="bevel" stroke-miterlimit="10" x1="104" y1="204.5" x2="127" y2="204.5"/>
		
			<line fill="#FFFFFF" stroke="#000000" stroke-width="2" stroke-linejoin="bevel" stroke-miterlimit="10" x1="104" y1="209" x2="127" y2="209"/>
		<line fill="#FFFFFF" stroke="#000000" stroke-linejoin="bevel" stroke-miterlimit="10" x1="104" y1="214.5" x2="127" y2="214.5"/>
	</g>
</g>
<g>
	<g>
		
			<line fill="#FFFFFF" stroke="#000000" stroke-width="2" stroke-linejoin="bevel" stroke-miterlimit="10" x1="177" y1="88" x2="200" y2="88"/>
		<line fill="#FFFFFF" stroke="#000000" stroke-linejoin="bevel" stroke-miterlimit="10" x1="177" y1="93.5" x2="200" y2="93.5"/>
		
			<line fill="#FFFFFF" stroke="#000000" stroke-width="2" stroke-linejoin="bevel" stroke-miterlimit="10" x1="177" y1="99" x2="200" y2="99"/>
		<line fill="#FFFFFF" stroke="#000000" stroke-linejoin="bevel" stroke-miterlimit="10" x1="177" y1="104.5" x2="200" y2="104.5"/>
	</g>
	<g>
		
			<line fill="#FFFFFF" stroke="#000000" stroke-width="2" stroke-linejoin="bevel" stroke-miterlimit="10" x1="177" y1="109" x2="200" y2="109"/>
		<line fill="#FFFFFF" stroke="#000000" stroke-linejoin="bevel" stroke-miterlimit="10" x1="177" y1="114.5" x2="200" y2="114.5"/>
		
			<line fill="#FFFFFF" stroke="#000000" stroke-width="2" stroke-linejoin="bevel" stroke-miterlimit="10" x1="177" y1="120" x2="200" y2="120"/>
		<line fill="#FFFFFF" stroke="#000000" stroke-linejoin="bevel" stroke-miterlimit="10" x1="177" y1="125.5" x2="200" y2="125.5"/>
	</g>
	<g>
		
			<line fill="#FFFFFF" stroke="#000000" stroke-width="2" stroke-linejoin="bevel" stroke-miterlimit="10" x1="177" y1="130" x2="200" y2="130"/>
		<line fill="#FFFFFF" stroke="#000000" stroke-linejoin="bevel" stroke-miterlimit="10" x1="177" y1="135.5" x2="200" y2="135.5"/>
		
			<line fill="#FFFFFF" stroke="#000000" stroke-width="2" stroke-linejoin="bevel" stroke-miterlimit="10" x1="177" y1="141" x2="200" y2="141"/>
		<line fill="#FFFFFF" stroke="#000000" stroke-linejoin="bevel" stroke-miterlimit="10" x1="177" y1="146.5" x2="200" y2="146.5"/>
		
			<line fill="#FFFFFF" stroke="#000000" stroke-width="2" stroke-linejoin="bevel" stroke-miterlimit="10" x1="177" y1="151" x2="200" y2="151"/>
		<line fill="#FFFFFF" stroke="#000000" stroke-linejoin="bevel" stroke-miterlimit="10" x1="177" y1="156.5" x2="200" y2="156.5"/>
	</g>
</g>
<g>
	<g>
		
			<line fill="#FFFFFF" stroke="#000000" stroke-width="2" stroke-linejoin="bevel" stroke-miterlimit="10" x1="245" y1="151" x2="268" y2="151"/>
		<line fill="#FFFFFF" stroke="#000000" stroke-linejoin="bevel" stroke-miterlimit="10" x1="245" y1="156.5" x2="268" y2="156.5"/>
		
			<line fill="#FFFFFF" stroke="#000000" stroke-width="2" stroke-linejoin="bevel" stroke-miterlimit="10" x1="245" y1="162" x2="268" y2="162"/>
		<line fill="#FFFFFF" stroke="#000000" stroke-linejoin="bevel" stroke-miterlimit="10" x1="245" y1="167.5" x2="268" y2="167.5"/>
	</g>
	<g>
		
			<line fill="#FFFFFF" stroke="#000000" stroke-width="2" stroke-linejoin="bevel" stroke-miterlimit="10" x1="245" y1="172" x2="268" y2="172"/>
		<line fill="#FFFFFF" stroke="#000000" stroke-linejoin="bevel" stroke-miterlimit="10" x1="245" y1="177.5" x2="268" y2="177.5"/>
		
			<line fill="#FFFFFF" stroke="#000000" stroke-width="2" stroke-linejoin="bevel" stroke-miterlimit="10" x1="245" y1="183" x2="268" y2="183"/>
		<line fill="#FFFFFF" stroke="#000000" stroke-linejoin="bevel" stroke-miterlimit="10" x1="245" y1="188.5" x2="268" y2="188.5"/>
	</g>
	<g>
		
			<line fill="#FFFFFF" stroke="#000000" stroke-width="2" stroke-linejoin="bevel" stroke-miterlimit="10" x1="245" y1="193" x2="268" y2="193"/>
		<line fill="#FFFFFF" stroke="#000000" stroke-linejoin="bevel" stroke-miterlimit="10" x1="245" y1="198.5" x2="268" y2="198.5"/>
		
			<line fill="#FFFFFF" stroke="#000000" stroke-width="2" stroke-linejoin="bevel" stroke-miterlimit="10" x1="245" y1="204" x2="268" y2="204"/>
		<line fill="#FFFFFF" stroke="#000000" stroke-linejoin="bevel" stroke-miterlimit="10" x1="245" y1="209.5" x2="268" y2="209.5"/>
		
			<line fill="#FFFFFF" stroke="#000000" stroke-width="2" stroke-linejoin="bevel" stroke-miterlimit="10" x1="245" y1="214" x2="268" y2="214"/>
		<line fill="#FFFFFF" stroke="#000000" stroke-linejoin="bevel" stroke-miterlimit="10" x1="245" y1="219.5" x2="268" y2="219.5"/>
	</g>
</g>
<g>
	<path fill="none" stroke="#000000" stroke-width="2" stroke-linecap="round" stroke-linejoin="round" stroke-miterlimit="10" d="
		M188.5,71.5c0,0-31.171-10.061-55.5,10.571C109.5,102,115.5,130.5,115.5,130.5"/>
</g>
<path fill="none" stroke="#000000" stroke-linecap="round" stroke-linejoin="round" stroke-miterlimit="10" d="M43.011,73.583
	c18.807-18.807,44.79-30.44,73.489-30.44c27.477,0,52.463,10.663,71.047,28.076"/>
<path fill="none" stroke="#000000" stroke-linecap="round" stroke-linejoin="round" stroke-miterlimit="10" d="M115.398,130.669
	c17.885-17.341,42.27-28.015,69.148-28.015c28.308,0,54.815,12.509,72.911,31.506"/>
<path fill="none" stroke="#000000" stroke-linecap="round" stroke-linejoin="round" stroke-miterlimit="10" d="M43.229,73.256
	c22.088-27.806,56.194-45.635,94.464-45.635c61.843,0,112.812,46.561,119.764,106.539"/>
<path fill="none" stroke="#000000" stroke-width="2" stroke-linecap="round" stroke-linejoin="round" stroke-miterlimit="10" d="
	M256.412,232.012C235.74,263.902,199.834,285,159,285c-63.033,0-114.325-50.275-115.96-112.915"/>
</svg>
