<?xml version="1.0" encoding="utf-8"?>
<!-- Generator: Adobe Illustrator 16.0.4, SVG Export Plug-In . SVG Version: 6.00 Build 0)  -->
<!DOCTYPE svg PUBLIC "-//W3C//DTD SVG 1.1//EN" "http://www.w3.org/Graphics/SVG/1.1/DTD/svg11.dtd">
<svg version="1.1" id="Layer_1" xmlns="http://www.w3.org/2000/svg" xmlns:xlink="http://www.w3.org/1999/xlink" x="0px" y="0px"
	 width="300px" height="300px" viewBox="0 0 300 300" enable-background="new 0 0 300 300" xml:space="preserve">
<g>
	
		<line fill="none" stroke="#000000" stroke-width="2" stroke-miterlimit="10" stroke-dasharray="8,8" x1="91" y1="156.5" x2="212" y2="156.5"/>
	<circle fill="#FFFFFF" stroke="#000000" stroke-miterlimit="10" cx="52.674" cy="164.044" r="4.25"/>
	<path fill="none" stroke="#000000" stroke-miterlimit="10" d="M6.823,162.225c-4.854-7.936-3.847-18.443,3.021-25.311
		c1.547-1.546,3.277-2.795,5.121-3.747"/>
	<path fill="none" stroke="#000000" stroke-miterlimit="10" d="M53.938,122.188c13.1-6.225,29.269-3.897,40.139,6.973
		c9.099,9.1,12.212,21.914,9.333,33.53"/>
	<line fill="none" stroke="#000000" stroke-miterlimit="10" x1="49.236" y1="161.438" x2="19.717" y2="131.919"/>
	<line fill="none" stroke="#000000" stroke-miterlimit="10" x1="55.14" y1="167.343" x2="84.659" y2="196.859"/>
	<line fill="none" stroke="#000000" stroke-miterlimit="10" x1="56.321" y1="160.848" x2="77.574" y2="139.594"/>
	<line fill="none" stroke="#000000" stroke-miterlimit="10" x1="49.827" y1="167.343" x2="19.717" y2="197.452"/>
	<line fill="none" stroke="#000000" stroke-miterlimit="10" x1="51.5" y1="159" x2="51.5" y2="123"/>
	<line fill="none" stroke="#000000" stroke-miterlimit="10" x1="57" y1="164.5" x2="103" y2="164.5"/>
	<line fill="none" stroke="#000000" stroke-miterlimit="10" x1="51.5" y1="168" x2="51.5" y2="194"/>
	<line fill="none" stroke="#000000" stroke-miterlimit="10" x1="48.44" y1="163.71" x2="9.604" y2="163.744"/>
	<circle fill="#FFFFFF" stroke="#000000" stroke-miterlimit="10" cx="52.339" cy="123.449" r="2.109"/>
	<circle fill="#FFFFFF" stroke="#000000" stroke-miterlimit="10" cx="20.176" cy="131.86" r="5.371"/>
	<circle fill="#FFFFFF" stroke="#000000" stroke-miterlimit="10" cx="77.323" cy="139.71" r="3.01"/>
	<circle fill="#FFFFFF" stroke="#000000" stroke-miterlimit="10" cx="102.719" cy="164.381" r="1.825"/>
	<circle fill="#FFFFFF" stroke="#000000" stroke-miterlimit="10" cx="84.859" cy="196.543" r="2.073"/>
	<circle fill="#FFFFFF" stroke="#000000" stroke-miterlimit="10" cx="52.04" cy="193.542" r="5.833"/>
	<circle fill="#FFFFFF" stroke="#000000" stroke-miterlimit="10" cx="19.548" cy="197.485" r="3.008"/>
	<circle fill="#FFFFFF" stroke="#000000" stroke-miterlimit="10" cx="9.604" cy="163.743" r="3.175"/>
	<circle fill="#FFFFFF" stroke="#000000" stroke-miterlimit="10" cx="61.851" cy="127.701" r="4.25"/>
	<path fill="none" stroke="#000000" stroke-miterlimit="10" d="M95.56,96.565c9.044,2.179,15.762,10.322,15.762,20.034
		c0,2.187-0.341,4.294-0.972,6.271"/>
	<path fill="none" stroke="#000000" stroke-miterlimit="10" d="M90.554,158.189c-4.861,13.666-17.94,23.453-33.312,23.453
		c-12.869,0-24.13-6.858-30.309-17.11"/>
	<line fill="none" stroke="#000000" stroke-miterlimit="10" x1="66" y1="127.5" x2="107" y2="127.5"/>
	<line fill="none" stroke="#000000" stroke-miterlimit="10" x1="57" y1="127.5" x2="15" y2="127.5"/>
	<line fill="none" stroke="#000000" stroke-miterlimit="10" x1="61.5" y1="133" x2="61.5" y2="163"/>
	<line fill="none" stroke="#000000" stroke-miterlimit="10" x1="61.5" y1="123" x2="61.5" y2="80"/>
	<line fill="none" stroke="#000000" stroke-miterlimit="10" x1="65.177" y1="130.148" x2="91.152" y2="156.125"/>
	<line fill="none" stroke="#000000" stroke-miterlimit="10" x1="58.682" y1="130.148" x2="26.211" y2="162.619"/>
	<line fill="none" stroke="#000000" stroke-miterlimit="10" x1="59.272" y1="124.245" x2="41.562" y2="106.533"/>
	<line fill="none" stroke="#000000" stroke-miterlimit="10" x1="65.083" y1="124.944" x2="92.519" y2="97.458"/>
	<circle fill="#FFFFFF" stroke="#000000" stroke-miterlimit="10" cx="90.792" cy="156.169" r="2.108"/>
	<circle fill="#FFFFFF" stroke="#000000" stroke-miterlimit="10" cx="107.589" cy="127.479" r="5.371"/>
	<circle fill="#FFFFFF" stroke="#000000" stroke-miterlimit="10" cx="61.629" cy="162.337" r="3.009"/>
	<circle fill="#FFFFFF" stroke="#000000" stroke-miterlimit="10" cx="26.226" cy="162.851" r="1.823"/>
	<circle fill="#FFFFFF" stroke="#000000" stroke-miterlimit="10" cx="16.112" cy="127.478" r="2.073"/>
	<circle fill="#FFFFFF" stroke="#000000" stroke-miterlimit="10" cx="41.442" cy="106.395" r="5.833"/>
	<circle fill="#FFFFFF" stroke="#000000" stroke-miterlimit="10" cx="61.629" cy="80.63" r="3.009"/>
	<circle fill="#FFFFFF" stroke="#000000" stroke-miterlimit="10" cx="92.519" cy="97.459" r="3.176"/>
	<circle fill="#FFFFFF" stroke="#000000" stroke-miterlimit="10" cx="248.383" cy="172.299" r="4.25"/>
	<path fill="none" stroke="#000000" stroke-miterlimit="10" d="M214.672,203.436c-9.041-2.18-15.76-10.32-15.76-20.035
		c0-2.186,0.341-4.293,0.972-6.271"/>
	<path fill="none" stroke="#000000" stroke-miterlimit="10" d="M219.682,141.809c4.858-13.664,17.938-23.451,33.312-23.451
		c12.868,0,24.131,6.858,30.309,17.11"/>
	<line fill="none" stroke="#000000" stroke-miterlimit="10" x1="244" y1="172.5" x2="202" y2="172.5"/>
	<line fill="none" stroke="#000000" stroke-miterlimit="10" x1="253" y1="172.5" x2="294" y2="172.5"/>
	<line fill="none" stroke="#000000" stroke-miterlimit="10" x1="249.5" y1="167" x2="249.5" y2="137"/>
	<line fill="none" stroke="#000000" stroke-miterlimit="10" x1="249.5" y1="177" x2="249.5" y2="220"/>
	<line fill="none" stroke="#000000" stroke-miterlimit="10" x1="245.15" y1="169.543" x2="219.441" y2="143.831"/>
	<line fill="none" stroke="#000000" stroke-miterlimit="10" x1="251.736" y1="169.704" x2="284.207" y2="137.233"/>
	<line fill="none" stroke="#000000" stroke-miterlimit="10" x1="251.146" y1="175.607" x2="268.857" y2="193.318"/>
	<line fill="none" stroke="#000000" stroke-miterlimit="10" x1="245.15" y1="175.057" x2="217.715" y2="202.542"/>
	<circle fill="#FFFFFF" stroke="#000000" stroke-miterlimit="10" cx="219.441" cy="143.832" r="2.108"/>
	<circle fill="#FFFFFF" stroke="#000000" stroke-miterlimit="10" cx="202.645" cy="172.521" r="5.371"/>
	<circle fill="#FFFFFF" stroke="#000000" stroke-miterlimit="10" cx="248.605" cy="137.663" r="3.009"/>
	<circle fill="#FFFFFF" stroke="#000000" stroke-miterlimit="10" cx="284.007" cy="137.15" r="1.824"/>
	<circle fill="#FFFFFF" stroke="#000000" stroke-miterlimit="10" cx="294.121" cy="172.522" r="2.072"/>
	<circle fill="#FFFFFF" stroke="#000000" stroke-miterlimit="10" cx="268.791" cy="193.604" r="5.833"/>
	<circle fill="#FFFFFF" stroke="#000000" stroke-miterlimit="10" cx="248.605" cy="219.37" r="3.009"/>
	<ellipse fill="#FFFFFF" stroke="#000000" stroke-miterlimit="10" cx="217.716" cy="202.542" rx="3.176" ry="3.176"/>
	<circle fill="#FFFFFF" stroke="#000000" stroke-miterlimit="10" cx="229.173" cy="140.112" r="4.25"/>
	<path fill="none" stroke="#000000" stroke-miterlimit="10" d="M230.993,94.259c7.935-4.854,18.442-3.846,25.312,3.022
		c1.545,1.545,2.795,3.275,3.746,5.121"/>
	<path fill="none" stroke="#000000" stroke-miterlimit="10" d="M271.029,141.376c6.225,13.099,3.896,29.269-6.973,40.14
		c-9.102,9.099-21.914,12.211-33.531,9.332"/>
	<line fill="none" stroke="#000000" stroke-miterlimit="10" x1="231.664" y1="136.643" x2="261.184" y2="107.123"/>
	<line fill="none" stroke="#000000" stroke-miterlimit="10" x1="225.76" y1="142.546" x2="196.24" y2="172.064"/>
	<line fill="none" stroke="#000000" stroke-miterlimit="10" x1="232.254" y1="143.727" x2="253.507" y2="164.98"/>
	<line fill="none" stroke="#000000" stroke-miterlimit="10" x1="225.76" y1="137.233" x2="195.65" y2="107.123"/>
	<line fill="none" stroke="#000000" stroke-miterlimit="10" x1="233" y1="139.5" x2="270" y2="139.5"/>
	<line fill="none" stroke="#000000" stroke-miterlimit="10" x1="228.5" y1="144" x2="228.5" y2="190"/>
	<line fill="none" stroke="#000000" stroke-miterlimit="10" x1="226" y1="139.5" x2="200" y2="139.5"/>
	<line fill="none" stroke="#000000" stroke-miterlimit="10" x1="229.509" y1="135.877" x2="229.475" y2="97.042"/>
	<circle fill="#FFFFFF" stroke="#000000" stroke-miterlimit="10" cx="269.768" cy="139.777" r="2.108"/>
	<circle fill="#FFFFFF" stroke="#000000" stroke-miterlimit="10" cx="261.357" cy="107.613" r="5.371"/>
	<circle fill="#FFFFFF" stroke="#000000" stroke-miterlimit="10" cx="253.507" cy="164.76" r="3.009"/>
	<circle fill="#FFFFFF" stroke="#000000" stroke-miterlimit="10" cx="228.838" cy="190.156" r="1.824"/>
	<circle fill="#FFFFFF" stroke="#000000" stroke-miterlimit="10" cx="196.674" cy="172.296" r="2.072"/>
	<circle fill="#FFFFFF" stroke="#000000" stroke-miterlimit="10" cx="199.676" cy="139.478" r="5.832"/>
	<circle fill="#FFFFFF" stroke="#000000" stroke-miterlimit="10" cx="195.732" cy="106.985" r="3.01"/>
	<circle fill="#FFFFFF" stroke="#000000" stroke-miterlimit="10" cx="229.475" cy="97.042" r="3.175"/>
	<circle fill="#FFFFFF" stroke="#000000" stroke-miterlimit="10" cx="211.768" cy="156.229" r="2.108"/>
</g>
</svg>
