<?xml version="1.0" encoding="utf-8"?>
<!-- Generator: Adobe Illustrator 16.0.4, SVG Export Plug-In . SVG Version: 6.00 Build 0)  -->
<!DOCTYPE svg PUBLIC "-//W3C//DTD SVG 1.1//EN" "http://www.w3.org/Graphics/SVG/1.1/DTD/svg11.dtd">
<svg version="1.1" id="Layer_1" xmlns="http://www.w3.org/2000/svg" xmlns:xlink="http://www.w3.org/1999/xlink" x="0px" y="0px"
	 width="300px" height="300px" viewBox="0 0 300 300" enable-background="new 0 0 300 300" xml:space="preserve">
<g>
	<circle fill="none" stroke="#000000" stroke-miterlimit="10" cx="24.708" cy="150" r="20.524"/>
	
		<circle fill="none" stroke="#000000" stroke-width="2" stroke-linejoin="bevel" stroke-miterlimit="10" cx="229.578" cy="150" r="66.238"/>
	<g>
		<polygon points="164,152 46,151 164,150 		"/>
	</g>
	
		<line fill="none" stroke="#000000" stroke-linejoin="bevel" stroke-miterlimit="10" x1="165.355" y1="132.989" x2="292.896" y2="167.01"/>
	
		<line fill="none" stroke="#000000" stroke-width="2" stroke-linejoin="bevel" stroke-miterlimit="10" x1="257.35" y1="90.34" x2="200.9" y2="209.661"/>
	
		<line fill="none" stroke="#000000" stroke-width="2" stroke-linejoin="bevel" stroke-miterlimit="10" x1="284.021" y1="113.36" x2="174.23" y2="186.643"/>
	
		<line fill="none" stroke="#000000" stroke-linejoin="bevel" stroke-miterlimit="10" x1="169.561" y1="121.575" x2="288.691" y2="178.424"/>
	
		<line fill="none" stroke="#000000" stroke-linejoin="bevel" stroke-miterlimit="10" x1="248.959" y1="87.051" x2="209.291" y2="212.949"/>
	<g>
		<path d="M215.082,85.512l73.518,35.874L229.126,150L215.082,85.512 M176.031,110.795L229.126,150l-21.129,10.166L176.031,110.795
			 M229.126,150L229.126,150L229.126,150L229.126,150 M229.126,150l53.093,39.204l-45.486-4.278L229.126,150 M207.997,160.166
			l15.208,23.486l-53.555-5.036L207.997,160.166 M223.205,183.652l13.527,1.272l6.438,29.562L223.205,183.652 M215.521,84.613
			l-1.416,1.112l13.479,61.894l-50.959-37.627l-1.434,1.348l31.35,48.418l-37.324,17.958l0.34,1.896l53.072,4.992l19.701,30.43
			l1.816-0.758L238,186.05l44.125,4.149l0.688-1.801l-51.758-38.217l57.979-27.895l0.005-1.8L215.521,84.613L215.521,84.613z
			 M209.454,160.575l18.964-9.125l7.046,32.352l-11.683-1.099L209.454,160.575L209.454,160.575z"/>
	</g>
	<polyline fill="none" stroke="#000000" stroke-width="2" stroke-linejoin="bevel" stroke-miterlimit="10" points="169.65,178.616 
		191.576,95.723 266.613,204.277 229,216 229,84 182.395,103.331 275.764,196.669 	"/>
	
		<line fill="none" stroke="#000000" stroke-linejoin="bevel" stroke-miterlimit="10" x1="294.582" y1="141.549" x2="163.668" y2="158.452"/>
	<polyline fill="none" stroke="#000000" stroke-width="0.5" stroke-linejoin="bevel" stroke-miterlimit="10" points="
		295.004,154.004 214.094,214.266 244.158,85.735 163.248,145.995 295.004,154.004 274.475,102.048 183.775,197.953 
		293.406,135.031 164.846,164.971 274.475,102.048 282.219,189.204 	"/>
	<polyline fill="none" stroke="#000000" stroke-width="0.5" stroke-linejoin="bevel" stroke-miterlimit="10" points="
		191.576,95.723 290.783,173.543 167.469,126.456 	"/>
	
		<line fill="none" stroke="#000000" stroke-width="0.5" stroke-linejoin="bevel" stroke-miterlimit="10" x1="163.248" y1="145.995" x2="183.775" y2="197.953"/>
	
		<line fill="none" stroke="#000000" stroke-width="0.5" stroke-linejoin="bevel" stroke-miterlimit="10" x1="36.194" y1="132.989" x2="11.359" y2="165.583"/>
	
		<line fill="none" stroke="#000000" stroke-linejoin="bevel" stroke-miterlimit="10" x1="43.41" y1="158.452" x2="11.11" y2="134.633"/>
	
		<line fill="none" stroke="#000000" stroke-width="0.5" stroke-linejoin="bevel" stroke-miterlimit="10" x1="4.209" y1="151" x2="45.232" y2="150"/>
	
		<line fill="none" stroke="#000000" stroke-linejoin="bevel" stroke-miterlimit="10" x1="27.26" y1="170.523" x2="24.708" y2="129.476"/>
</g>
</svg>
