<?xml version="1.0" encoding="utf-8"?>
<!-- Generator: Adobe Illustrator 16.0.4, SVG Export Plug-In . SVG Version: 6.00 Build 0)  -->
<!DOCTYPE svg PUBLIC "-//W3C//DTD SVG 1.1//EN" "http://www.w3.org/Graphics/SVG/1.1/DTD/svg11.dtd">
<svg version="1.1" id="Layer_1" xmlns="http://www.w3.org/2000/svg" xmlns:xlink="http://www.w3.org/1999/xlink" x="0px" y="0px"
	 width="300px" height="300px" viewBox="0 0 300 300" enable-background="new 0 0 300 300" xml:space="preserve">
<polyline fill="none" stroke="#000000" stroke-miterlimit="10" points="64,189 102.021,195.961 88.886,218 "/>
<line fill="none" stroke="#000000" stroke-miterlimit="10" x1="102.021" y1="195.961" x2="115.155" y2="214"/>
<polyline fill="none" stroke="#000000" stroke-miterlimit="10" points="199.757,65.962 214.109,84.824 218.857,52.878 "/>
<polyline fill="none" stroke="#000000" stroke-miterlimit="10" points="234.775,80.938 214.109,84.824 218.857,96.336 "/>
<circle fill="#FFFFFF" stroke="#000000" stroke-miterlimit="10" cx="150" cy="150" r="9.571"/>
<path fill="none" stroke="#000000" stroke-miterlimit="10" stroke-dasharray="8,8" d="M79.885,74.088
	C84.793,53.724,103.129,38.594,125,38.594c4.924,0,9.669,0.767,14.123,2.188"/>
<g>
	<g>
		<path fill="none" stroke="#000000" stroke-miterlimit="10" d="M218.664,85.364c1.259,0.448,2.504,0.927,3.732,1.436"/>
		<path fill="none" stroke="#000000" stroke-miterlimit="10" stroke-dasharray="8.1759,8.1759" d="M229.775,90.314
			c24.829,13.444,41.701,39.779,41.701,70.067c0,26.073-12.502,49.218-31.823,63.73"/>
		<path fill="none" stroke="#000000" stroke-miterlimit="10" d="M236.317,226.486c-1.104,0.743-2.229,1.461-3.372,2.149"/>
	</g>
</g>
<line fill="none" stroke="#000000" stroke-miterlimit="10" x1="149.5" y1="140" x2="149.5" y2="47"/>
<line fill="none" stroke="#000000" stroke-miterlimit="10" x1="149.5" y1="160" x2="149.5" y2="253"/>
<line fill="none" stroke="#000000" stroke-miterlimit="10" x1="160" y1="150.5" x2="228" y2="150.5"/>
<line fill="none" stroke="#000000" stroke-miterlimit="10" x1="140" y1="150.5" x2="44" y2="150.5"/>
<line fill="none" stroke="#000000" stroke-miterlimit="10" x1="156.209" y1="142.724" x2="214.109" y2="84.824"/>
<line fill="none" stroke="#000000" stroke-miterlimit="10" x1="156.209" y1="157.275" x2="229.156" y2="230.225"/>
<line fill="none" stroke="#000000" stroke-miterlimit="10" x1="142.306" y1="155.676" x2="102.021" y2="195.961"/>
<line fill="none" stroke="#000000" stroke-miterlimit="10" x1="143.792" y1="142.724" x2="81.896" y2="80.938"/>
<circle fill="#FFFFFF" stroke="#000000" stroke-miterlimit="10" cx="214.109" cy="84.824" r="4.748"/>
<circle fill="#FFFFFF" stroke="#000000" stroke-miterlimit="10" cx="149.5" cy="47" r="12.095"/>
<circle fill="#FFFFFF" stroke="#000000" stroke-miterlimit="10" cx="228" cy="150.5" r="6.776"/>
<circle fill="#FFFFFF" stroke="#000000" stroke-miterlimit="10" cx="229.156" cy="230.225" r="4.108"/>
<circle fill="#FFFFFF" stroke="#000000" stroke-miterlimit="10" cx="149.5" cy="253" r="4.667"/>
<circle fill="#FFFFFF" stroke="#000000" stroke-miterlimit="10" cx="102.021" cy="195.961" r="13.135"/>
<circle fill="#FFFFFF" stroke="#000000" stroke-miterlimit="10" cx="44" cy="150.5" r="6.776"/>
<ellipse fill="#FFFFFF" stroke="#000000" stroke-miterlimit="10" cx="81.896" cy="80.938" rx="7.152" ry="7.139"/>
<circle fill="#FFFFFF" stroke="#000000" stroke-miterlimit="10" cx="199.757" cy="65.962" r="2.889"/>
<circle fill="#FFFFFF" stroke="#000000" stroke-miterlimit="10" cx="218.857" cy="52.878" r="6.217"/>
<circle fill="#FFFFFF" stroke="#000000" stroke-miterlimit="10" cx="234.775" cy="80.938" r="3.886"/>
<circle fill="#FFFFFF" stroke="#000000" stroke-miterlimit="10" cx="218.857" cy="96.336" r="2.366"/>
<circle fill="#FFFFFF" stroke="#000000" stroke-miterlimit="10" cx="64" cy="189" r="5.461"/>
<circle fill="#FFFFFF" stroke="#000000" stroke-miterlimit="10" cx="88.886" cy="218" r="5.781"/>
<circle fill="#FFFFFF" stroke="#000000" stroke-miterlimit="10" cx="115.155" cy="214" r="4.008"/>
</svg>
