<?xml version="1.0" encoding="utf-8"?>
<!-- Generator: Adobe Illustrator 16.0.4, SVG Export Plug-In . SVG Version: 6.00 Build 0)  -->
<!DOCTYPE svg PUBLIC "-//W3C//DTD SVG 1.1//EN" "http://www.w3.org/Graphics/SVG/1.1/DTD/svg11.dtd">
<svg version="1.1" id="Layer_1" xmlns="http://www.w3.org/2000/svg" xmlns:xlink="http://www.w3.org/1999/xlink" x="0px" y="0px"
	 width="800px" height="500px" viewBox="0 0 800 500" enable-background="new 0 0 800 500" xml:space="preserve">
<circle fill="#FFFFFF" stroke="#000000" stroke-width="2" stroke-miterlimit="10" cx="81.5" cy="250" r="32.54"/>
<circle stroke="#FFFFFF" stroke-width="2" stroke-miterlimit="10" cx="718.5" cy="250" r="32.539"/>
<g>
	<g>
		<g>
			<line fill="none" stroke="#FF9800" stroke-width="4" stroke-miterlimit="10" x1="255" y1="251" x2="256.5" y2="251"/>
			
				<line fill="none" stroke="#FF9800" stroke-width="4" stroke-miterlimit="10" stroke-dasharray="3,3" x1="259.5" y1="251" x2="678" y2="251"/>
			<line fill="none" stroke="#FF9800" stroke-width="4" stroke-miterlimit="10" x1="679.5" y1="251" x2="681" y2="251"/>
		</g>
	</g>
	<g>
		<g>
			<path fill="none" d="M255,251"/>
		</g>
		<g>
			<path fill="none" d="M681,251"/>
		</g>
	</g>
</g>
<rect x="385.793" y="136.747" fill="none" width="148.414" height="260.317"/>
<text transform="matrix(1 0 0 1 396.4258 388.8418)" font-family="'Oswald-Light'" font-size="300">?</text>
<g>
	<path fill="none" stroke="#000000" stroke-width="2" stroke-linecap="round" stroke-linejoin="round" stroke-miterlimit="10" d="
		M219.679,71.598"/>
	
		<polyline fill="none" stroke="#000000" stroke-width="2" stroke-linecap="round" stroke-linejoin="round" stroke-miterlimit="10" points="
		219.679,71.598 81.5,250.898 220,159.74 	"/>
	
		<polyline fill="none" stroke="#000000" stroke-width="2" stroke-linecap="round" stroke-linejoin="round" stroke-miterlimit="10" points="
		221.325,251 81.5,250.898 219.678,340.55 	"/>
	
		<line fill="none" stroke="#000000" stroke-width="2" stroke-linecap="round" stroke-linejoin="round" stroke-miterlimit="10" x1="81.5" y1="250.898" x2="219.634" y2="431.45"/>
</g>
<circle fill="#FFFFFF" stroke="#000000" stroke-width="2" stroke-miterlimit="10" cx="81.5" cy="250" r="32.54"/>
<g>
	<g>
		<circle fill="#FFFFFF" stroke="#000000" stroke-miterlimit="10" cx="219.678" cy="71.598" r="25.794"/>
	</g>
	<g>
		<circle fill="#FFFFFF" stroke="#000000" stroke-miterlimit="10" cx="219.678" cy="161.248" r="25"/>
	</g>
	<g>
		<circle fill="#FFFFFF" stroke="#000000" stroke-miterlimit="10" cx="219.678" cy="340.55" r="25"/>
	</g>
	<g>
		<circle fill="#FFFFFF" stroke="#000000" stroke-miterlimit="10" cx="219.634" cy="431.45" r="25"/>
	</g>
	<g>
		<circle fill="#FFFFFF" stroke="#000000" stroke-miterlimit="10" cx="219.678" cy="250.899" r="25"/>
	</g>
</g>
<g opacity="0.8">
	<g>
		
			<line fill="none" stroke="#333333" stroke-width="2" stroke-linecap="round" stroke-miterlimit="10" x1="203" y1="327" x2="216" y2="327"/>
		
			<line fill="none" stroke="#333333" stroke-width="2" stroke-linecap="round" stroke-miterlimit="10" x1="203" y1="331" x2="216" y2="331"/>
		
			<line fill="none" stroke="#333333" stroke-width="2" stroke-linecap="round" stroke-miterlimit="10" x1="203" y1="335" x2="216" y2="335"/>
		
			<line fill="none" stroke="#333333" stroke-width="2" stroke-linecap="round" stroke-miterlimit="10" x1="203" y1="339" x2="216" y2="339"/>
		
			<line fill="none" stroke="#333333" stroke-width="2" stroke-linecap="round" stroke-miterlimit="10" x1="203" y1="343" x2="216" y2="343"/>
		
			<line fill="none" stroke="#333333" stroke-width="2" stroke-linecap="round" stroke-miterlimit="10" x1="203" y1="347" x2="216" y2="347"/>
		
			<line fill="none" stroke="#333333" stroke-width="2" stroke-linecap="round" stroke-miterlimit="10" x1="203" y1="351" x2="216" y2="351"/>
		
			<line fill="none" stroke="#333333" stroke-width="2" stroke-linecap="round" stroke-miterlimit="10" x1="203" y1="355" x2="216" y2="355"/>
	</g>
	<g>
		
			<line fill="none" stroke="#333333" stroke-width="2" stroke-linecap="round" stroke-miterlimit="10" x1="222" y1="327" x2="235" y2="327"/>
		
			<line fill="none" stroke="#333333" stroke-width="2" stroke-linecap="round" stroke-miterlimit="10" x1="222" y1="331" x2="235" y2="331"/>
		
			<line fill="none" stroke="#333333" stroke-width="2" stroke-linecap="round" stroke-miterlimit="10" x1="222" y1="335" x2="235" y2="335"/>
		
			<line fill="none" stroke="#333333" stroke-width="2" stroke-linecap="round" stroke-miterlimit="10" x1="222" y1="339" x2="235" y2="339"/>
		
			<line fill="none" stroke="#333333" stroke-width="2" stroke-linecap="round" stroke-miterlimit="10" x1="222" y1="343" x2="235" y2="343"/>
		
			<line fill="none" stroke="#333333" stroke-width="2" stroke-linecap="round" stroke-miterlimit="10" x1="222" y1="347" x2="235" y2="347"/>
		
			<line fill="none" stroke="#333333" stroke-width="2" stroke-linecap="round" stroke-miterlimit="10" x1="222" y1="351" x2="235" y2="351"/>
		
			<line fill="none" stroke="#333333" stroke-width="2" stroke-linecap="round" stroke-miterlimit="10" x1="222" y1="355" x2="235" y2="355"/>
	</g>
</g>
<g opacity="0.8">
	<g>
		
			<line fill="none" stroke="#333333" stroke-width="2" stroke-linecap="round" stroke-miterlimit="10" x1="204" y1="147" x2="217" y2="147"/>
		
			<line fill="none" stroke="#333333" stroke-width="2" stroke-linecap="round" stroke-miterlimit="10" x1="204" y1="151" x2="217" y2="151"/>
		
			<line fill="none" stroke="#333333" stroke-width="2" stroke-linecap="round" stroke-miterlimit="10" x1="204" y1="155" x2="217" y2="155"/>
		
			<line fill="none" stroke="#333333" stroke-width="2" stroke-linecap="round" stroke-miterlimit="10" x1="204" y1="159" x2="217" y2="159"/>
		
			<line fill="none" stroke="#333333" stroke-width="2" stroke-linecap="round" stroke-miterlimit="10" x1="204" y1="163" x2="217" y2="163"/>
		
			<line fill="none" stroke="#333333" stroke-width="2" stroke-linecap="round" stroke-miterlimit="10" x1="204" y1="167" x2="217" y2="167"/>
		
			<line fill="none" stroke="#333333" stroke-width="2" stroke-linecap="round" stroke-miterlimit="10" x1="204" y1="171" x2="217" y2="171"/>
		
			<line fill="none" stroke="#333333" stroke-width="2" stroke-linecap="round" stroke-miterlimit="10" x1="204" y1="175" x2="217" y2="175"/>
	</g>
	<g>
		
			<line fill="none" stroke="#333333" stroke-width="2" stroke-linecap="round" stroke-miterlimit="10" x1="223" y1="147" x2="236" y2="147"/>
		
			<line fill="none" stroke="#333333" stroke-width="2" stroke-linecap="round" stroke-miterlimit="10" x1="223" y1="151" x2="236" y2="151"/>
		
			<line fill="none" stroke="#333333" stroke-width="2" stroke-linecap="round" stroke-miterlimit="10" x1="223" y1="155" x2="236" y2="155"/>
		
			<line fill="none" stroke="#333333" stroke-width="2" stroke-linecap="round" stroke-miterlimit="10" x1="223" y1="159" x2="236" y2="159"/>
		
			<line fill="none" stroke="#333333" stroke-width="2" stroke-linecap="round" stroke-miterlimit="10" x1="223" y1="163" x2="236" y2="163"/>
		
			<line fill="none" stroke="#333333" stroke-width="2" stroke-linecap="round" stroke-miterlimit="10" x1="223" y1="167" x2="236" y2="167"/>
		
			<line fill="none" stroke="#333333" stroke-width="2" stroke-linecap="round" stroke-miterlimit="10" x1="223" y1="171" x2="236" y2="171"/>
		
			<line fill="none" stroke="#333333" stroke-width="2" stroke-linecap="round" stroke-miterlimit="10" x1="223" y1="175" x2="236" y2="175"/>
	</g>
	<g>
		
			<line fill="none" stroke="#333333" stroke-width="2" stroke-linecap="round" stroke-miterlimit="10" x1="213" y1="237" x2="226" y2="237"/>
		
			<line fill="none" stroke="#333333" stroke-width="2" stroke-linecap="round" stroke-miterlimit="10" x1="213" y1="241" x2="226" y2="241"/>
		
			<line fill="none" stroke="#333333" stroke-width="2" stroke-linecap="round" stroke-miterlimit="10" x1="213" y1="245" x2="226" y2="245"/>
		
			<line fill="none" stroke="#333333" stroke-width="2" stroke-linecap="round" stroke-miterlimit="10" x1="213" y1="249" x2="226" y2="249"/>
		
			<line fill="none" stroke="#333333" stroke-width="2" stroke-linecap="round" stroke-miterlimit="10" x1="213" y1="253" x2="226" y2="253"/>
		
			<line fill="none" stroke="#333333" stroke-width="2" stroke-linecap="round" stroke-miterlimit="10" x1="213" y1="257" x2="226" y2="257"/>
		
			<line fill="none" stroke="#333333" stroke-width="2" stroke-linecap="round" stroke-miterlimit="10" x1="213" y1="261" x2="226" y2="261"/>
		
			<line fill="none" stroke="#333333" stroke-width="2" stroke-linecap="round" stroke-miterlimit="10" x1="213" y1="265" x2="226" y2="265"/>
	</g>
	<g>
		
			<line fill="none" stroke="#333333" stroke-width="2" stroke-linecap="round" stroke-miterlimit="10" x1="214" y1="417" x2="227" y2="417"/>
		
			<line fill="none" stroke="#333333" stroke-width="2" stroke-linecap="round" stroke-miterlimit="10" x1="214" y1="421" x2="227" y2="421"/>
		
			<line fill="none" stroke="#333333" stroke-width="2" stroke-linecap="round" stroke-miterlimit="10" x1="214" y1="425" x2="227" y2="425"/>
		
			<line fill="none" stroke="#333333" stroke-width="2" stroke-linecap="round" stroke-miterlimit="10" x1="214" y1="429" x2="227" y2="429"/>
		
			<line fill="none" stroke="#333333" stroke-width="2" stroke-linecap="round" stroke-miterlimit="10" x1="214" y1="433" x2="227" y2="433"/>
		
			<line fill="none" stroke="#333333" stroke-width="2" stroke-linecap="round" stroke-miterlimit="10" x1="214" y1="437" x2="227" y2="437"/>
		
			<line fill="none" stroke="#333333" stroke-width="2" stroke-linecap="round" stroke-miterlimit="10" x1="214" y1="441" x2="227" y2="441"/>
		
			<line fill="none" stroke="#333333" stroke-width="2" stroke-linecap="round" stroke-miterlimit="10" x1="214" y1="445" x2="227" y2="445"/>
	</g>
	<g>
		
			<line fill="none" stroke="#333333" stroke-width="2" stroke-linecap="round" stroke-miterlimit="10" x1="214" y1="58" x2="227" y2="58"/>
		
			<line fill="none" stroke="#333333" stroke-width="2" stroke-linecap="round" stroke-miterlimit="10" x1="214" y1="62" x2="227" y2="62"/>
		
			<line fill="none" stroke="#333333" stroke-width="2" stroke-linecap="round" stroke-miterlimit="10" x1="214" y1="66" x2="227" y2="66"/>
		
			<line fill="none" stroke="#333333" stroke-width="2" stroke-linecap="round" stroke-miterlimit="10" x1="214" y1="70" x2="227" y2="70"/>
		
			<line fill="none" stroke="#333333" stroke-width="2" stroke-linecap="round" stroke-miterlimit="10" x1="214" y1="74" x2="227" y2="74"/>
		
			<line fill="none" stroke="#333333" stroke-width="2" stroke-linecap="round" stroke-miterlimit="10" x1="214" y1="78" x2="227" y2="78"/>
		
			<line fill="none" stroke="#333333" stroke-width="2" stroke-linecap="round" stroke-miterlimit="10" x1="214" y1="82" x2="227" y2="82"/>
		
			<line fill="none" stroke="#333333" stroke-width="2" stroke-linecap="round" stroke-miterlimit="10" x1="214" y1="86" x2="227" y2="86"/>
	</g>
</g>
</svg>
