<?xml version="1.0" encoding="utf-8"?>
<!-- Generator: Adobe Illustrator 16.0.4, SVG Export Plug-In . SVG Version: 6.00 Build 0)  -->
<!DOCTYPE svg PUBLIC "-//W3C//DTD SVG 1.1//EN" "http://www.w3.org/Graphics/SVG/1.1/DTD/svg11.dtd">
<svg version="1.1" id="Layer_1" xmlns="http://www.w3.org/2000/svg" xmlns:xlink="http://www.w3.org/1999/xlink" x="0px" y="0px"
	 width="800px" height="500px" viewBox="0 0 800 500" enable-background="new 0 0 800 500" xml:space="preserve">
<g>
	<g>
		
			<line fill="none" stroke="#FF9800" stroke-width="4" stroke-miterlimit="10" stroke-dasharray="3" x1="458.325" y1="251.048" x2="460.144" y2="249.333"/>
		
			<line fill="none" stroke="#FF9800" stroke-width="4" stroke-miterlimit="10" stroke-dasharray="3" x1="463.812" y1="245.873" x2="542.673" y2="171.493"/>
		
			<line fill="none" stroke="#FF9800" stroke-width="4" stroke-miterlimit="10" stroke-dasharray="3" x1="544.507" y1="169.763" x2="546.325" y2="168.048"/>
	</g>
</g>
<g>
	<g>
		
			<line fill="none" stroke="#FF9800" stroke-width="4" stroke-miterlimit="10" stroke-dasharray="3" x1="546.325" y1="168.048" x2="548.583" y2="169.122"/>
		
			<line fill="none" stroke="#FF9800" stroke-width="4" stroke-miterlimit="10" stroke-dasharray="3" x1="553.114" y1="171.279" x2="713.977" y2="247.847"/>
		
			<line fill="none" stroke="#FF9800" stroke-width="4" stroke-miterlimit="10" stroke-dasharray="3" x1="716.242" y1="248.926" x2="718.5" y2="250"/>
	</g>
</g>
<g>
	<g>
		
			<line fill="none" stroke="#FF9800" stroke-width="4" stroke-miterlimit="10" stroke-dasharray="3" x1="357.325" y1="108.048" x2="359.708" y2="108.804"/>
		
			<line fill="none" stroke="#FF9800" stroke-width="4" stroke-miterlimit="10" stroke-dasharray="3" x1="364.432" y1="110.304" x2="541.58" y2="166.542"/>
		
			<line fill="none" stroke="#FF9800" stroke-width="4" stroke-miterlimit="10" stroke-dasharray="3" x1="543.942" y1="167.292" x2="546.325" y2="168.048"/>
	</g>
</g>
<g>
	<g>
		
			<line fill="none" stroke="#FF9800" stroke-width="4" stroke-miterlimit="10" stroke-dasharray="3" x1="584.325" y1="72.048" x2="585.83" y2="74.044"/>
		
			<line fill="none" stroke="#FF9800" stroke-width="4" stroke-miterlimit="10" stroke-dasharray="3" x1="588.881" y1="78.09" x2="715.47" y2="245.981"/>
		
			<line fill="none" stroke="#FF9800" stroke-width="4" stroke-miterlimit="10" stroke-dasharray="3" x1="716.995" y1="248.004" x2="718.5" y2="250"/>
	</g>
</g>
<g>
	<g>
		
			<line fill="none" stroke="#FF9800" stroke-width="4" stroke-miterlimit="10" stroke-dasharray="3" x1="637.325" y1="433.048" x2="638.339" y2="430.763"/>
		
			<line fill="none" stroke="#FF9800" stroke-width="4" stroke-miterlimit="10" stroke-dasharray="3" x1="640.368" y1="426.188" x2="716.472" y2="254.573"/>
		
			<line fill="none" stroke="#FF9800" stroke-width="4" stroke-miterlimit="10" stroke-dasharray="3" x1="717.486" y1="252.285" x2="718.5" y2="250"/>
	</g>
</g>
<g>
	<g>
		
			<line fill="none" stroke="#FF9800" stroke-width="4" stroke-miterlimit="10" stroke-dasharray="3" x1="458.325" y1="339.048" x2="460.537" y2="340.214"/>
		
			<line fill="none" stroke="#FF9800" stroke-width="4" stroke-miterlimit="10" stroke-dasharray="3" x1="465.005" y1="342.568" x2="632.555" y2="430.902"/>
		
			<line fill="none" stroke="#FF9800" stroke-width="4" stroke-miterlimit="10" stroke-dasharray="3" x1="634.788" y1="432.08" x2="637" y2="433.246"/>
	</g>
</g>
<g>
	<g>
		
			<line fill="none" stroke="#FF9800" stroke-width="4" stroke-miterlimit="10" stroke-dasharray="3" x1="458" y1="251" x2="458" y2="253.5"/>
		
			<line fill="none" stroke="#FF9800" stroke-width="4" stroke-miterlimit="10" stroke-dasharray="3" x1="458" y1="258.383" x2="458" y2="334.059"/>
		
			<line fill="none" stroke="#FF9800" stroke-width="4" stroke-miterlimit="10" stroke-dasharray="3" x1="458" y1="336.5" x2="458" y2="339"/>
	</g>
</g>
<g>
	<g>
		
			<line fill="none" stroke="#FF9800" stroke-width="4" stroke-miterlimit="10" stroke-dasharray="3" x1="357.325" y1="387.048" x2="359.583" y2="385.975"/>
		
			<line fill="none" stroke="#FF9800" stroke-width="4" stroke-miterlimit="10" stroke-dasharray="3" x1="364.178" y1="383.791" x2="453.77" y2="341.213"/>
		
			<line fill="none" stroke="#FF9800" stroke-width="4" stroke-miterlimit="10" stroke-dasharray="3" x1="456.067" y1="340.121" x2="458.325" y2="339.048"/>
	</g>
</g>
<g>
	<g>
		
			<line fill="none" stroke="#FF9800" stroke-width="4" stroke-miterlimit="10" stroke-dasharray="3" x1="357.325" y1="108.048" x2="359.794" y2="107.656"/>
		
			<line fill="none" stroke="#FF9800" stroke-width="4" stroke-miterlimit="10" stroke-dasharray="3" x1="364.729" y1="106.874" x2="579.389" y2="72.831"/>
		
			<line fill="none" stroke="#FF9800" stroke-width="4" stroke-miterlimit="10" stroke-dasharray="3" x1="581.856" y1="72.439" x2="584.325" y2="72.048"/>
	</g>
</g>
<g>
	<g>
		
			<line fill="none" stroke="#FF9800" stroke-width="4" stroke-miterlimit="10" stroke-dasharray="3" x1="458" y1="251" x2="460.5" y2="251"/>
		
			<line fill="none" stroke="#FF9800" stroke-width="4" stroke-miterlimit="10" stroke-dasharray="3" x1="465.5" y1="251" x2="713" y2="251"/>
		
			<line fill="none" stroke="#FF9800" stroke-width="4" stroke-miterlimit="10" stroke-dasharray="3" x1="715.5" y1="251" x2="718" y2="251"/>
	</g>
</g>
<g>
	<g>
		<path fill="none" stroke="#FF9800" stroke-width="4" stroke-miterlimit="10" stroke-dasharray="3" d="M295,251
			c0,0,0.771-0.417,2.225-1.13"/>
		<path fill="none" stroke="#FF9800" stroke-width="4" stroke-miterlimit="10" stroke-dasharray="3" d="M301.732,247.76
			C314.362,242.099,343.35,231,376.5,231c36.71,0,66.253,12.465,77.065,17.714"/>
		<path fill="none" stroke="#FF9800" stroke-width="4" stroke-miterlimit="10" stroke-dasharray="3" d="M455.797,249.826
			C457.24,250.566,458,251,458,251"/>
	</g>
</g>
<g>
	<g>
		<path fill="none" stroke="#FF9800" stroke-width="4" stroke-miterlimit="10" stroke-dasharray="3" d="M295,251
			c0,0,0.771,0.417,2.225,1.13"/>
		<path fill="none" stroke="#FF9800" stroke-width="4" stroke-miterlimit="10" stroke-dasharray="3" d="M301.732,254.238
			C314.362,259.9,343.35,271,376.5,271c36.71,0,66.253-12.465,77.065-17.714"/>
		<path fill="none" stroke="#FF9800" stroke-width="4" stroke-miterlimit="10" stroke-dasharray="3" d="M455.797,252.174
			C457.24,251.434,458,251,458,251"/>
	</g>
</g>
<g>
	<g>
		
			<line fill="none" stroke="#FF9800" stroke-width="4" stroke-miterlimit="10" stroke-dasharray="3" x1="219.678" y1="340.55" x2="222.047" y2="341.35"/>
		
			<line fill="none" stroke="#FF9800" stroke-width="4" stroke-miterlimit="10" stroke-dasharray="3" x1="226.63" y1="342.898" x2="352.665" y2="385.475"/>
		<polyline fill="none" stroke="#FF9800" stroke-width="4" stroke-miterlimit="10" stroke-dasharray="3" points="354.957,386.248 
			357.325,387.048 354.96,387.857 		"/>
		
			<line fill="none" stroke="#FF9800" stroke-width="4" stroke-miterlimit="10" stroke-dasharray="3" x1="350.388" y1="389.422" x2="224.664" y2="432.449"/>
		
			<line fill="none" stroke="#FF9800" stroke-width="4" stroke-miterlimit="10" stroke-dasharray="3" x1="222.377" y1="433.231" x2="220.012" y2="434.041"/>
	</g>
</g>
<g>
	<g>
		<g>
			
				<line fill="none" stroke="#FF9800" stroke-width="4" stroke-miterlimit="10" stroke-dasharray="3" x1="219.679" y1="71.598" x2="218.153" y2="73.578"/>
			
				<line fill="none" stroke="#FF9800" stroke-width="4" stroke-miterlimit="10" stroke-dasharray="3" x1="215.15" y1="77.475" x2="84.527" y2="246.97"/>
			<polyline fill="none" stroke="#FF9800" stroke-width="4" stroke-miterlimit="10" stroke-dasharray="3" points="83.026,248.918 
				81.5,250.898 83.588,249.524 			"/>
			<polyline fill="none" stroke="#FF9800" stroke-width="4" stroke-miterlimit="10" stroke-dasharray="3" points="87.8,246.752 
				220,159.74 352.626,109.816 			"/>
			<polyline fill="none" stroke="#FF9800" stroke-width="4" stroke-miterlimit="10" stroke-dasharray="3" points="354.985,108.929 
				357.325,108.048 354.909,107.408 			"/>
			
				<line fill="none" stroke="#FF9800" stroke-width="4" stroke-miterlimit="10" stroke-dasharray="3" x1="349.99" y1="106.105" x2="224.555" y2="72.89"/>
			
				<line fill="none" stroke="#FF9800" stroke-width="4" stroke-miterlimit="10" stroke-dasharray="3" x1="222.096" y1="72.238" x2="219.679" y2="71.598"/>
		</g>
	</g>
	<g>
		<g>
			
				<line fill="none" stroke="#FF9800" stroke-width="4" stroke-miterlimit="10" stroke-dasharray="3" x1="295.325" y1="251" x2="292.825" y2="250.999"/>
			
				<line fill="none" stroke="#FF9800" stroke-width="4" stroke-miterlimit="10" stroke-dasharray="3" x1="287.732" y1="250.996" x2="86.547" y2="250.9"/>
			<polyline fill="none" stroke="#FF9800" stroke-width="4" stroke-miterlimit="10" stroke-dasharray="3" points="84,250.898 
				81.5,250.898 83.597,252.259 			"/>
			
				<line fill="none" stroke="#FF9800" stroke-width="4" stroke-miterlimit="10" stroke-dasharray="3" x1="87.919" y1="255.062" x2="215.42" y2="337.787"/>
			
				<line fill="none" stroke="#FF9800" stroke-width="4" stroke-miterlimit="10" stroke-dasharray="3" x1="217.581" y1="339.189" x2="219.678" y2="340.55"/>
		</g>
	</g>
	<g>
		<g>
			
				<line fill="none" stroke="#FF9800" stroke-width="4" stroke-miterlimit="10" stroke-dasharray="3" x1="81.5" y1="250.898" x2="83.019" y2="252.884"/>
			
				<line fill="none" stroke="#FF9800" stroke-width="4" stroke-miterlimit="10" stroke-dasharray="3" x1="86.021" y1="256.809" x2="216.614" y2="427.503"/>
			
				<line fill="none" stroke="#FF9800" stroke-width="4" stroke-miterlimit="10" stroke-dasharray="3" x1="218.115" y1="429.465" x2="219.634" y2="431.45"/>
		</g>
	</g>
</g>
<circle fill="#FFFFFF" stroke="#000000" stroke-width="2" stroke-miterlimit="10" cx="81.5" cy="250" r="32.54"/>
<circle stroke="#FFFFFF" stroke-width="2" stroke-miterlimit="10" cx="718.5" cy="250" r="32.539"/>
<circle fill="#FFFFFF" stroke="#000000" stroke-miterlimit="10" cx="357.325" cy="387.048" r="19.048"/>
<circle fill="#FFFFFF" stroke="#000000" stroke-miterlimit="10" cx="295.325" cy="250.048" r="19.048"/>
<circle fill="#FFFFFF" stroke="#000000" stroke-miterlimit="10" cx="458.325" cy="251.048" r="19.048"/>
<circle fill="#FFFFFF" stroke="#000000" stroke-miterlimit="10" cx="546.325" cy="168.048" r="19.048"/>
<circle fill="#FFFFFF" stroke="#000000" stroke-miterlimit="10" cx="637.325" cy="433.048" r="19.048"/>
<g>
	<g>
		<circle fill="#FFFFFF" stroke="#000000" stroke-miterlimit="10" cx="219.678" cy="71.598" r="25.794"/>
		<g opacity="0.8">
			<g transform="translate(241.59, -4.64258)">
				<path fill="#333333" d="M-6.664,85.976c-1.976-0.054-3.485,0.13-4.776,0.674c-0.366,0.155-0.951,0.159-1.011,0.618
					c0.201,0.211,0.232,0.527,0.393,0.787c0.308,0.499,0.829,1.167,1.292,1.518c0.507,0.382,1.03,0.792,1.574,1.124
					c0.967,0.59,2.047,0.927,2.978,1.517c0.549,0.348,1.094,0.787,1.629,1.18c0.265,0.194,0.443,0.497,0.787,0.618
					c0-0.019,0-0.037,0-0.056c-0.181-0.23-0.227-0.546-0.393-0.787c-0.243-0.244-0.487-0.487-0.73-0.73
					c-0.714-0.948-1.621-1.78-2.584-2.472c-0.769-0.552-2.489-1.297-2.81-2.191c-0.019-0.019-0.037-0.038-0.056-0.056
					c0.545-0.062,1.183-0.259,1.686-0.393c0.845-0.227,1.6-0.168,2.472-0.394c0.394-0.112,0.787-0.225,1.18-0.337
					c0-0.075,0-0.149,0-0.225c-0.441-0.453-0.755-1.051-1.236-1.461c-1.259-1.071-2.632-2.142-4.046-3.034
					c-0.784-0.495-1.753-0.816-2.584-1.236c-0.279-0.141-0.771-0.214-0.956-0.45c-0.437-0.556-0.674-1.262-1.011-1.91
					c-0.705-1.358-1.398-2.842-2.022-4.271c-0.426-0.974-0.705-1.935-1.236-2.81c-2.551-4.194-5.297-6.726-9.552-9.215
					c-0.905-0.529-1.995-0.738-3.147-1.011c-0.617-0.038-1.236-0.075-1.854-0.113c-0.377-0.157-0.77-0.619-1.124-0.843
					c-1.409-0.89-5.024-2.827-6.068-0.281c-0.659,1.607,0.985,3.175,1.573,3.99c0.413,0.571,0.941,1.211,1.236,1.854
					c0.194,0.422,0.227,0.846,0.394,1.292c0.408,1.101,0.764,2.298,1.292,3.315c0.267,0.515,0.562,1.057,0.899,1.517
					c0.207,0.282,0.562,0.407,0.617,0.843c-0.347,0.486-0.367,1.239-0.562,1.854c-0.878,2.769-0.547,6.21,0.73,8.26
					c0.392,0.629,1.315,1.979,2.584,1.461c1.11-0.452,0.863-1.854,1.18-3.09c0.072-0.281,0.027-0.487,0.168-0.674
					c0,0.019,0,0.037,0,0.056c0.337,0.674,0.674,1.348,1.012,2.022c0.749,1.206,2.077,2.465,3.203,3.315
					c0.583,0.441,1.043,1.203,1.798,1.461c0-0.019,0-0.037,0-0.056c-0.019,0-0.038,0-0.056,0c-0.146-0.228-0.375-0.322-0.562-0.506
					c-0.439-0.431-0.929-0.967-1.292-1.46c-1.023-1.391-1.928-2.912-2.752-4.496c-0.395-0.756-0.736-1.59-1.068-2.36
					c-0.128-0.297-0.126-0.746-0.393-0.899c-0.363,0.564-0.899,1.02-1.18,1.686c-0.45,1.064-0.508,2.362-0.674,3.708
					c-0.099,0.035-0.055,0.011-0.112,0.056c-0.783-0.189-1.058-0.994-1.349-1.686c-0.735-1.748-0.872-4.562-0.225-6.574
					c0.167-0.521,0.925-2.16,0.618-2.641c-0.146-0.48-0.629-0.757-0.899-1.124c-0.334-0.453-0.668-1.05-0.899-1.573
					c-0.602-1.363-0.883-2.893-1.517-4.271c-0.303-0.658-0.815-1.325-1.236-1.91c-0.466-0.648-0.988-1.126-1.349-1.911
					c-0.128-0.279-0.303-0.725-0.112-1.011c0.061-0.193,0.146-0.274,0.337-0.337c0.326-0.251,1.233,0.084,1.573,0.225
					c0.901,0.374,1.653,0.729,2.417,1.236c0.366,0.243,0.736,0.713,1.18,0.843c0.168,0,0.337,0,0.505,0
					c0.791,0.182,1.677,0.057,2.416,0.281c1.306,0.397,2.477,1.014,3.54,1.686c3.238,2.045,5.886,4.956,7.698,8.428
					c0.292,0.559,0.417,1.093,0.674,1.686c0.518,1.196,1.17,2.426,1.685,3.596c0.514,1.167,1.016,2.344,1.742,3.315
					c0.382,0.51,1.858,0.784,2.529,1.067c0.47,0.199,1.24,0.406,1.686,0.674c0.85,0.513,1.674,1.124,2.472,1.686
					C-7.951,84.852-6.726,85.468-6.664,85.976z"/>
			</g>
			<g transform="translate(272.504, 24.8027)">
				<path fill="#333333" d="M-62.694,35.122c-0.413-0.008-0.704,0.045-1.012,0.112c0,0.019,0,0.038,0,0.057c0.019,0,0.038,0,0.056,0
					c0.196,0.404,0.544,0.664,0.787,1.011c0.188,0.394,0.375,0.787,0.562,1.18c0.019-0.019,0.038-0.038,0.056-0.056
					c0.348-0.245,0.507-0.638,0.505-1.236c-0.139-0.146-0.16-0.331-0.281-0.506C-62.181,35.451-62.492,35.318-62.694,35.122z"/>
			</g>
		</g>
	</g>
	<g>
		<circle fill="#FFFFFF" stroke="#000000" stroke-miterlimit="10" cx="219.678" cy="161.248" r="25"/>
		<g id="g3275" opacity="0.8">
			<path id="path2464" fill="none" stroke="#333333" stroke-linecap="round" stroke-linejoin="round" d="M237.474,167.879
				c-4.81,0.992-5.14-0.637-5.14-0.637c5.078-7.535,7.2-17.099,5.368-19.44c-4.997-6.385-13.648-3.366-13.793-3.287l-0.046,0.008
				c-0.951-0.197-2.014-0.314-3.209-0.334c-2.176-0.036-3.827,0.571-5.079,1.521c0,0-15.434-6.357-14.716,7.996
				c0.153,3.054,4.377,23.105,9.415,17.048c1.842-2.215,3.621-4.087,3.621-4.087c0.884,0.587,1.941,0.887,3.051,0.779l0.086-0.073
				c-0.026,0.274-0.015,0.544,0.035,0.862c-1.299,1.45-0.917,1.704-3.512,2.238c-2.625,0.542-1.083,1.505-0.076,1.757
				c1.221,0.305,4.045,0.737,5.953-1.934l-0.076,0.305c0.509,0.407,0.866,2.649,0.807,4.682c-0.061,2.033-0.101,3.428,0.301,4.518
				c0.4,1.091,0.8,3.543,4.21,2.812c2.851-0.611,4.327-2.193,4.533-4.834c0.146-1.877,0.476-1.6,0.496-3.277l0.265-0.795
				c0.306-2.544,0.049-3.365,1.805-2.983l0.427,0.038c1.292,0.059,2.983-0.208,3.977-0.67
				C238.314,169.1,239.582,167.443,237.474,167.879L237.474,167.879z"/>
			<path id="path2466" fill="none" stroke="#333333" stroke-linecap="round" stroke-linejoin="round" d="M219.64,169.338
				c-0.133,4.733,0.033,9.501,0.496,10.66c0.464,1.158,1.456,3.412,4.866,2.681c2.85-0.61,3.887-1.793,4.337-4.403
				c0.331-1.92,0.97-7.252,1.052-8.345"/>
			<path id="path2468" fill="none" stroke="#333333" stroke-linecap="round" stroke-linejoin="round" d="M215.551,145.604
				c0,0-15.443-6.312-14.726,8.042c0.153,3.054,4.378,23.106,9.416,17.05c1.841-2.216,3.506-3.953,3.506-3.953"/>
			<path id="path2470" fill="none" stroke="#333333" stroke-linecap="round" stroke-linejoin="round" d="M223.893,144.452
				c-0.535,0.167,8.59-3.335,13.776,3.291c1.831,2.341-0.291,11.906-5.369,19.441"/>
			<path id="path2472" fill="none" stroke="#333333" stroke-linecap="round" stroke-linejoin="bevel" d="M232.3,167.184
				c0,0,0.331,1.629,5.141,0.636c2.106-0.436,0.839,1.222-1.298,2.214c-1.754,0.814-5.688,1.022-5.751-0.103
				C230.227,167.028,232.461,167.91,232.3,167.184c-0.146-0.655-1.146-1.299-1.807-2.901c-0.577-1.399-7.916-12.128,2.036-10.535
				c0.363-0.075-2.596-9.465-11.909-9.619c-9.311-0.152-9.006,11.451-9.006,11.451"/>
			<path id="path2474" fill="none" stroke="#333333" stroke-linecap="round" stroke-linejoin="round" d="M217.034,168.176
				c-1.299,1.45-0.917,1.705-3.512,2.238c-2.625,0.541-1.082,1.505-0.076,1.756c1.221,0.306,4.045,0.738,5.954-1.934
				c0.58-0.813-0.004-2.111-0.802-2.442C218.212,167.634,217.697,167.434,217.034,168.176L217.034,168.176z"/>
			<path id="path2476" fill="none" stroke="#333333" stroke-linecap="round" stroke-linejoin="round" d="M216.949,168.15
				c-0.131-0.853,0.28-1.867,0.721-3.055c0.661-1.78,2.188-3.562,0.967-9.21c-0.91-4.21-7.018-0.876-7.021-0.305
				c-0.004,0.57,0.276,2.893-0.102,5.598c-0.494,3.529,2.245,6.514,5.399,6.209"/>
			<path id="path2478" fill="#4169E1" stroke="#333333" d="M215.496,155.494c-0.027,0.195,0.356,0.715,0.858,0.785
				c0.5,0.069,0.929-0.337,0.955-0.532c0.027-0.195-0.356-0.41-0.857-0.479S215.522,155.3,215.496,155.494L215.496,155.494z"/>
			<path id="path2480" fill="#4169E1" stroke="#333333" d="M230.738,155.097c0.027,0.195-0.356,0.715-0.858,0.785
				c-0.5,0.07-0.929-0.336-0.956-0.531c-0.026-0.195,0.357-0.41,0.858-0.479C230.283,154.803,230.71,154.902,230.738,155.097
				L230.738,155.097z"/>
			<path id="path2482" fill="none" stroke="#333333" stroke-linecap="round" stroke-linejoin="round" d="M232.53,153.748
				c0.082,1.529-0.33,2.571-0.382,4.199c-0.077,2.366,1.128,5.075-0.688,7.786"/>
		</g>
	</g>
	<g>
		<circle fill="#FFFFFF" stroke="#000000" stroke-miterlimit="10" cx="219.678" cy="340.55" r="25"/>
		<g opacity="0.8">
			<g>
				
					<line fill="none" stroke="#333333" stroke-width="2" stroke-linecap="round" stroke-miterlimit="10" x1="203" y1="327" x2="216" y2="327"/>
				
					<line fill="none" stroke="#333333" stroke-width="2" stroke-linecap="round" stroke-miterlimit="10" x1="203" y1="331" x2="216" y2="331"/>
				
					<line fill="none" stroke="#333333" stroke-width="2" stroke-linecap="round" stroke-miterlimit="10" x1="203" y1="335" x2="216" y2="335"/>
				
					<line fill="none" stroke="#333333" stroke-width="2" stroke-linecap="round" stroke-miterlimit="10" x1="203" y1="339" x2="216" y2="339"/>
				
					<line fill="none" stroke="#333333" stroke-width="2" stroke-linecap="round" stroke-miterlimit="10" x1="203" y1="343" x2="216" y2="343"/>
				
					<line fill="none" stroke="#333333" stroke-width="2" stroke-linecap="round" stroke-miterlimit="10" x1="203" y1="347" x2="216" y2="347"/>
				
					<line fill="none" stroke="#333333" stroke-width="2" stroke-linecap="round" stroke-miterlimit="10" x1="203" y1="351" x2="216" y2="351"/>
				
					<line fill="none" stroke="#333333" stroke-width="2" stroke-linecap="round" stroke-miterlimit="10" x1="203" y1="355" x2="216" y2="355"/>
			</g>
			<g>
				
					<line fill="none" stroke="#333333" stroke-width="2" stroke-linecap="round" stroke-miterlimit="10" x1="222" y1="327" x2="235" y2="327"/>
				
					<line fill="none" stroke="#333333" stroke-width="2" stroke-linecap="round" stroke-miterlimit="10" x1="222" y1="331" x2="235" y2="331"/>
				
					<line fill="none" stroke="#333333" stroke-width="2" stroke-linecap="round" stroke-miterlimit="10" x1="222" y1="335" x2="235" y2="335"/>
				
					<line fill="none" stroke="#333333" stroke-width="2" stroke-linecap="round" stroke-miterlimit="10" x1="222" y1="339" x2="235" y2="339"/>
				
					<line fill="none" stroke="#333333" stroke-width="2" stroke-linecap="round" stroke-miterlimit="10" x1="222" y1="343" x2="235" y2="343"/>
				
					<line fill="none" stroke="#333333" stroke-width="2" stroke-linecap="round" stroke-miterlimit="10" x1="222" y1="347" x2="235" y2="347"/>
				
					<line fill="none" stroke="#333333" stroke-width="2" stroke-linecap="round" stroke-miterlimit="10" x1="222" y1="351" x2="235" y2="351"/>
				
					<line fill="none" stroke="#333333" stroke-width="2" stroke-linecap="round" stroke-miterlimit="10" x1="222" y1="355" x2="235" y2="355"/>
			</g>
		</g>
	</g>
	<g>
		<circle fill="#FFFFFF" stroke="#000000" stroke-miterlimit="10" cx="219.634" cy="431.45" r="25"/>
		<g id="g10" transform="matrix(1.25,0,0,-1.25,-37.439415,223.03962)" opacity="0.8">
			<path id="path68" stroke="#333333" stroke-width="0.5" stroke-miterlimit="10" d="M192.246-170.023
				c-0.059-0.158-0.116-0.316-0.174-0.473l-0.333,0.122c0.058,0.158,0.116,0.316,0.173,0.473L192.246-170.023z M192.072-170.496
				c-0.086-0.234-0.173-0.47-0.259-0.705l-0.333,0.123c0.086,0.234,0.173,0.47,0.259,0.702L192.072-170.496z M191.814-171.2
				l-0.041-0.062l-0.125,0.126L191.814-171.2L191.814-171.2z M191.772-171.264c-0.189-0.188-0.378-0.375-0.567-0.562l-0.25,0.251
				c0.189,0.188,0.378,0.375,0.567,0.562L191.772-171.264z M191.205-171.826c-0.168-0.166-0.336-0.332-0.504-0.498l-0.249,0.251
				c0.168,0.166,0.335,0.333,0.503,0.498L191.205-171.826z M190.701-172.325c-0.077-0.076-0.102-0.101-0.126-0.123l-0.245,0.257
				c0.052,0.049,0.108,0.104,0.122,0.117L190.701-172.325z M190.575-172.448c-0.227-0.218-0.272-0.262-0.206-0.652l-0.349-0.059
				c-0.097,0.576-0.03,0.641,0.31,0.968L190.575-172.448z M190.369-173.1c0.053-0.312,0.157-0.636,0.322-0.948l-0.316-0.165
				c-0.18,0.344-0.297,0.702-0.355,1.054L190.369-173.1z M190.691-174.048c0.152-0.291,0.355-0.571,0.614-0.83l-0.252-0.25
				c-0.287,0.287-0.511,0.598-0.678,0.916L190.691-174.048z M191.305-174.878c0.331-0.334,0.872-0.745,1.434-0.959l-0.124-0.33
				c-0.616,0.233-1.203,0.68-1.562,1.039L191.305-174.878z M192.739-175.836c0.392-0.148,0.791-0.2,1.124-0.052l0.143-0.325
				c-0.43-0.19-0.921-0.134-1.391,0.046L192.739-175.836L192.739-175.836z M193.864-175.889l0.343,0.152l-0.1-0.361l-0.171,0.047
				L193.864-175.889z M194.107-176.098c-0.045-0.162-0.097-0.327-0.156-0.492l-0.334,0.121c0.056,0.156,0.106,0.312,0.148,0.465
				L194.107-176.098z M193.95-176.59c-0.056-0.155-0.12-0.312-0.191-0.467l-0.323,0.148c0.066,0.145,0.126,0.293,0.18,0.441
				L193.95-176.59z M193.76-177.057c-0.3-0.658,0.014-1.004,0.502-1.227l-0.147-0.323c-0.667,0.305-1.095,0.781-0.678,1.696
				L193.76-177.057z M194.261-178.284c0.311-0.141,0.688-0.24,1.038-0.331l-0.089-0.343c-0.368,0.096-0.763,0.199-1.096,0.352
				L194.261-178.284z M195.3-178.615c0.092-0.023,0.182-0.048,0.247-0.065l-0.091-0.342c-0.095,0.025-0.17,0.045-0.245,0.064
				L195.3-178.615z M195.546-178.68c0.422-0.114,1.152-0.323,1.808-0.365l-0.022-0.355c-0.688,0.045-1.441,0.26-1.877,0.378
				L195.546-178.68z M197.354-179.045c0.593-0.038,1.122,0.062,1.245,0.516l0.342-0.09c-0.181-0.674-0.858-0.829-1.609-0.782
				L197.354-179.045z M198.599-178.528c0.065,0.241,0.102,0.427,0.118,0.611l0.355-0.03c-0.016-0.2-0.059-0.405-0.13-0.671
				L198.599-178.528z M198.717-177.918c0.016,0.184,0.009,0.364-0.014,0.592l0.352,0.034c0.026-0.257,0.034-0.455,0.016-0.655
				L198.717-177.918z M198.703-177.325l0.014,0.089l0.162-0.072L198.703-177.325z M198.717-177.236
				c0.239,0.534,0.337,0.677,0.512,0.931l0.292-0.199c-0.161-0.234-0.252-0.369-0.479-0.877L198.717-177.236L198.717-177.236z
				 M199.229-176.305c0.017,0.027,0.033,0.048,0.077,0.115l0.294-0.198c-0.011-0.016-0.048-0.071-0.079-0.116L199.229-176.305z
				 M199.306-176.19c0.135,0.202,0.198,0.335,0.218,0.474l0.351-0.048c-0.029-0.198-0.107-0.375-0.275-0.624L199.306-176.19
				L199.306-176.19z M199.524-175.716c0.02,0.146-0.001,0.32-0.032,0.586l0.352,0.041c0.034-0.292,0.058-0.484,0.03-0.675
				L199.524-175.716L199.524-175.716z M199.492-175.13c-0.009,0.073-0.016,0.13-0.021,0.168l0.352,0.045
				c0.01-0.08,0.018-0.136,0.022-0.172L199.492-175.13z M199.471-174.962c-0.004,0.03-0.013,0.091-0.025,0.175l0.352,0.052
				c0.005-0.038,0.013-0.098,0.025-0.182L199.471-174.962L199.471-174.962z M199.446-174.787l-0.034,0.237l0.237-0.034l-0.027-0.177
				L199.446-174.787z M199.648-174.585c0.502-0.077,0.995-0.113,1.485-0.116l-0.002-0.355c-0.507,0.003-1.016,0.041-1.537,0.12
				L199.648-174.585z M201.133-174.702c0.491-0.003,0.98,0.028,1.474,0.089l0.041-0.352c-0.509-0.062-1.012-0.095-1.517-0.091
				L201.133-174.702L201.133-174.702z M202.607-174.613l0.109-0.33l-0.089,0.155L202.607-174.613z M202.717-174.943
				c-0.287-0.166-0.573-0.314-0.938-0.502l-0.163,0.316c0.36,0.185,0.643,0.33,0.923,0.495L202.717-174.943L202.717-174.943z
				 M201.779-175.444c-0.027-0.014-0.054-0.028-0.081-0.042l-0.163,0.316c0.027,0.014,0.055,0.027,0.081,0.041L201.779-175.444
				L201.779-175.444z M201.698-175.486c-0.375-0.193-0.379-0.598-0.246-1.022l-0.338-0.105c-0.182,0.58-0.158,1.146,0.422,1.444
				L201.698-175.486z M201.452-176.508c0.15-0.48,0.47-0.987,0.67-1.297l-0.297-0.192c-0.211,0.325-0.548,0.86-0.711,1.384
				L201.452-176.508L201.452-176.508z M202.121-177.805c0.42-0.645,0.815-1.19,1.269-1.468l-0.184-0.302
				c-0.513,0.316-0.938,0.895-1.381,1.578L202.121-177.805L202.121-177.805z M203.39-179.273c0.43-0.263,0.931-0.288,1.595,0.073
				l0.168-0.312c-0.794-0.43-1.409-0.391-1.948-0.062L203.39-179.273L203.39-179.273z M204.986-179.2
				c0.314,0.17,0.42,0.355,0.562,0.603l0.309-0.175c-0.171-0.301-0.299-0.523-0.703-0.741L204.986-179.2z M205.547-178.597
				c0.056,0.098,0.119,0.207,0.209,0.342l0.294-0.197c-0.073-0.108-0.136-0.22-0.194-0.32L205.547-178.597L205.547-178.597z
				 M205.757-178.255l0.062,0.058l0.085-0.155L205.757-178.255L205.757-178.255z M205.818-178.197
				c0.103,0.057,0.546,0.423,0.977,0.778l0.227-0.273c-0.445-0.368-0.903-0.746-1.033-0.818L205.818-178.197L205.818-178.197z
				 M206.795-177.419c0.222,0.184,0.441,0.364,0.555,0.455l0.223-0.277c-0.209-0.167-0.38-0.309-0.552-0.451L206.795-177.419z
				 M207.35-176.964l0.136,0.109l0.112-0.134l-0.137-0.114L207.35-176.964z M207.597-176.988c0.071-0.085,0.183-0.138,0.335-0.174
				l-0.081-0.345c-0.227,0.055-0.402,0.141-0.527,0.291L207.597-176.988z M207.932-177.162c0.175-0.041,0.405-0.062,0.683-0.082
				l-0.025-0.355c-0.292,0.021-0.535,0.043-0.739,0.091L207.932-177.162z M208.615-177.244c0.218-0.016,0.914-0.016,1.364-0.016
				v-0.355c-0.459,0-1.171-0.001-1.389,0.015L208.615-177.244z M209.979-177.26c0.143,0,0.262,0,0.333,0l-0.002-0.355
				c-0.071,0.002-0.189,0.002-0.331,0.002V-177.26L209.979-177.26z M210.312-177.26c0.419-0.003,0.752,0.016,0.97,0.141l0.175-0.309
				c-0.289-0.164-0.672-0.189-1.147-0.188L210.312-177.26L210.312-177.26z M211.282-177.119c0.201,0.113,0.322,0.337,0.352,0.755
				l0.355-0.025c-0.04-0.555-0.223-0.866-0.532-1.041L211.282-177.119z M211.634-176.364c0.016,0.215,0.019,0.343-0.005,0.452
				l0.347,0.077c0.034-0.155,0.031-0.309,0.014-0.555L211.634-176.364z M211.628-175.91c-0.023,0.109-0.08,0.223-0.187,0.412
				l0.311,0.173c0.122-0.216,0.188-0.352,0.223-0.509L211.628-175.91L211.628-175.91z M211.442-175.499l-0.022,0.083l0.177,0.005
				L211.442-175.499z M211.42-175.416c-0.006,0.255-0.014,0.509-0.02,0.764l0.355,0.009c0.007-0.255,0.014-0.509,0.02-0.765
				L211.42-175.416L211.42-175.416z M211.4-174.652c-0.007,0.255-0.014,0.51-0.02,0.765l0.355,0.009
				c0.006-0.255,0.014-0.51,0.02-0.766L211.4-174.652L211.4-174.652z M211.379-173.887c-0.008,0.273-0.037,0.493-0.091,0.706
				l0.344,0.086c0.061-0.24,0.095-0.484,0.102-0.784L211.379-173.887z M211.288-173.181c-0.055,0.215-0.135,0.43-0.245,0.691
				l0.327,0.138c0.116-0.275,0.202-0.505,0.262-0.743L211.288-173.181z M211.043-172.489c-0.077,0.184-0.145,0.363-0.21,0.541
				l0.334,0.122c0.062-0.168,0.126-0.339,0.204-0.525L211.043-172.489z M211.166-171.826L211.166-171.826L211-171.888
				L211.166-171.826z M210.832-171.95c-0.101,0.273-0.199,0.539-0.344,0.824l0.317,0.159c0.152-0.299,0.255-0.577,0.36-0.86
				L210.832-171.95z M210.489-171.125l-0.016,0.11l0.174-0.03L210.489-171.125z M210.473-171.015
				c0.017,0.099,0.031,0.191,0.043,0.274l0.351-0.045c-0.014-0.108-0.03-0.205-0.045-0.291L210.473-171.015L210.473-171.015z
				 M210.516-170.741c0.01,0.076,0.02,0.17,0.03,0.286l0.355-0.03c-0.007-0.084-0.019-0.184-0.034-0.302L210.516-170.741
				L210.516-170.741z M210.546-170.455l0.033,0.371l0.267-0.257l-0.123-0.128L210.546-170.455z M210.846-170.341
				c0.174-0.168,0.348-0.336,0.522-0.503l-0.245-0.256c-0.174,0.167-0.348,0.335-0.522,0.502L210.846-170.341z M211.368-170.844
				l0.39-0.376l-0.245-0.257l-0.39,0.377L211.368-170.844L211.368-170.844z M211.758-171.22c0.282-0.271,0.539-0.518,0.824-0.686
				l-0.18-0.307c-0.32,0.189-0.592,0.45-0.89,0.736L211.758-171.22L211.758-171.22z M212.582-171.906
				c0.274-0.163,0.584-0.256,0.987-0.238l0.016-0.355c-0.481-0.023-0.853,0.091-1.183,0.285L212.582-171.906z M213.569-172.143
				c0.434,0.02,0.902,0.206,1.292,0.495l0.211-0.285c-0.444-0.327-0.983-0.54-1.487-0.564L213.569-172.143z M214.861-171.649
				c0.372,0.275,0.668,0.639,0.788,1.034l0.341-0.102c-0.144-0.473-0.489-0.902-0.918-1.217L214.861-171.649z M215.65-170.614
				c0.042,0.137,0.084,0.273,0.125,0.409l0.34-0.102c-0.041-0.137-0.084-0.273-0.124-0.409L215.65-170.614z M215.775-170.204
				c0.048,0.159,0.097,0.32,0.145,0.477l0.34-0.102c-0.048-0.159-0.097-0.319-0.145-0.477L215.775-170.204z M215.92-169.727
				l0.046,0.152l0.156-0.03l-0.033-0.173L215.92-169.727z M216.122-169.604c0.719-0.134,1.502-0.183,2.254-0.104l0.034-0.352
				c-0.786-0.084-1.604-0.034-2.354,0.109L216.122-169.604z M218.376-169.708c0.661,0.07,1.298,0.237,1.847,0.53l0.166-0.314
				c-0.589-0.314-1.272-0.495-1.979-0.568L218.376-169.708z M220.223-169.178c0.802,0.427,1.405,1.061,1.84,1.812l0.308-0.176
				c-0.466-0.809-1.116-1.489-1.981-1.952L220.223-169.178z M222.063-167.366L222.063-167.366l0.154-0.088L222.063-167.366
				L222.063-167.366z M222.063-167.365c0.496,0.859,0.773,1.873,0.879,2.917l0.352-0.033c-0.11-1.095-0.402-2.159-0.923-3.063
				L222.063-167.365z M222.942-164.448c0.086,0.851,0.039,2.012-0.139,3.134l0.35,0.055c0.182-1.151,0.23-2.345,0.141-3.223
				L222.942-164.448L222.942-164.448z M222.803-161.314c-0.157,0.991-0.416,1.948-0.773,2.63l0.315,0.163
				c0.374-0.716,0.645-1.713,0.808-2.738L222.803-161.314z M222.03-158.683c-0.027,0.054-0.074,0.113-0.134,0.171l0.248,0.253
				c0.085-0.084,0.155-0.173,0.2-0.261L222.03-158.683L222.03-158.683z M221.896-158.512c-0.152,0.15-0.378,0.292-0.613,0.373
				l0.115,0.334c0.285-0.097,0.56-0.27,0.746-0.455L221.896-158.512L221.896-158.512z M221.284-158.139
				c-0.217,0.073-0.436,0.095-0.593,0.013l-0.164,0.316c0.252,0.13,0.57,0.109,0.872,0.005L221.284-158.139L221.284-158.139z
				 M220.691-158.126c-0.033-0.017-0.063-0.039-0.09-0.067l-0.255,0.248c0.055,0.055,0.116,0.1,0.18,0.134L220.691-158.126
				L220.691-158.126z M220.601-158.193c-0.146-0.147-0.273-0.333-0.401-0.519l-0.293,0.199c0.138,0.202,0.276,0.402,0.439,0.568
				L220.601-158.193z M220.2-158.712c-0.168-0.245-0.337-0.492-0.555-0.679l-0.23,0.271c0.184,0.158,0.339,0.383,0.492,0.607
				L220.2-158.712L220.2-158.712z M219.645-159.391c-0.267-0.229-0.577-0.352-0.865-0.468l-0.132,0.33
				c0.262,0.105,0.544,0.22,0.767,0.409L219.645-159.391z M218.78-159.859c-0.051-0.02-0.1-0.041-0.131-0.053l-0.134,0.329
				c0.055,0.023,0.095,0.038,0.134,0.054L218.78-159.859z M218.649-159.912l-0.17-0.07l-0.064,0.173l0.167,0.062L218.649-159.912
				L218.649-159.912z M218.415-159.809c-0.114,0.31-0.255,0.587-0.419,0.848l0.302,0.188c0.174-0.278,0.325-0.577,0.451-0.913
				L218.415-159.809L218.415-159.809z M217.996-158.961c-0.165,0.263-0.352,0.509-0.556,0.752l0.272,0.228
				c0.216-0.259,0.413-0.516,0.586-0.792L217.996-158.961z M217.44-158.209c-0.159,0.189-0.312,0.33-0.478,0.456l0.215,0.282
				c0.186-0.142,0.359-0.3,0.535-0.51L217.44-158.209L217.44-158.209z M216.962-157.753c-0.166,0.127-0.355,0.245-0.574,0.383
				l0.188,0.301c0.223-0.139,0.414-0.259,0.601-0.402L216.962-157.753L216.962-157.753z M216.388-157.37
				c-0.619,0.387-1.137,0.842-1.667,1.307l0.234,0.268c0.517-0.455,1.025-0.901,1.622-1.274L216.388-157.37z M214.721-156.063
				c-0.223,0.195-0.448,0.393-0.699,0.6l0.227,0.274c0.233-0.191,0.47-0.4,0.706-0.606L214.721-156.063L214.721-156.063z
				 M214.021-155.463c-1.172,0.966-2.258,1.435-3.412,1.508l0.022,0.355c1.231-0.077,2.382-0.572,3.616-1.587L214.021-155.463
				L214.021-155.463z M210.61-153.955c-1.162,0.073-2.404-0.252-3.878-0.873l-0.137,0.327c1.524,0.642,2.816,0.978,4.038,0.902
				L210.61-153.955z M206.732-154.828c-0.695-0.292-1.209-0.637-1.655-1.049l-0.24,0.261c0.476,0.44,1.022,0.805,1.757,1.115
				L206.732-154.828z M205.077-155.877c-0.45-0.416-0.836-0.907-1.27-1.487l-0.284,0.212c0.444,0.594,0.841,1.098,1.314,1.535
				L205.077-155.877L205.077-155.877z M203.807-157.364l-0.05-0.067l-0.083-0.004l-0.009,0.177L203.807-157.364z M203.675-157.435
				c-0.248-0.013-0.454-0.043-0.659-0.125l-0.132,0.33c0.249,0.1,0.49,0.135,0.773,0.15L203.675-157.435z M203.015-157.56
				c-0.209-0.084-0.424-0.223-0.688-0.455l-0.234,0.266c0.296,0.262,0.544,0.422,0.79,0.52L203.015-157.56z M202.328-158.015
				c-0.203-0.18-0.401-0.363-0.595-0.551l-0.247,0.255c0.195,0.188,0.397,0.375,0.608,0.561L202.328-158.015z M201.732-158.566
				L201.732-158.566l-0.123,0.127L201.732-158.566L201.732-158.566z M201.732-158.567c-0.192-0.186-0.38-0.375-0.565-0.57
				l-0.256,0.246c0.188,0.196,0.379,0.389,0.576,0.579L201.732-158.567z M201.167-159.135l-0.101-0.052l-0.027,0.175
				L201.167-159.135z M201.066-159.187c-1.387-0.221-2.512-0.464-3.516-0.853l-0.128,0.331c1.027,0.398,2.174,0.646,3.589,0.872
				L201.066-159.187L201.066-159.187z M197.55-160.04c-0.996-0.386-1.875-0.917-2.779-1.719l-0.234,0.266
				c0.938,0.831,1.85,1.384,2.885,1.784L197.55-160.04z M194.771-161.759c-0.366-0.325-0.682-0.666-0.958-1.027l-0.281,0.216
				c0.29,0.38,0.622,0.738,1.005,1.079L194.771-161.759z M193.813-162.786c-0.276-0.362-0.512-0.743-0.72-1.148l-0.316,0.16
				c0.217,0.423,0.465,0.823,0.755,1.203L193.813-162.786z M193.093-163.935l-0.027-0.038l-0.131,0.119L193.093-163.935z
				 M193.066-163.973c-0.202-0.223-0.403-0.449-0.62-0.644l-0.237,0.265c0.209,0.188,0.401,0.404,0.593,0.616L193.066-163.973z
				 M192.446-164.617c-0.227-0.204-0.472-0.377-0.755-0.488l-0.128,0.331c0.238,0.091,0.448,0.241,0.647,0.42L192.446-164.617z
				 M191.691-165.103L191.691-165.103l-0.064,0.166L191.691-165.103z M191.69-165.103c-0.228-0.088-0.339-0.132-0.466-0.078
				l0.137,0.327c0.005-0.002,0.063,0.029,0.202,0.082L191.69-165.103z M191.225-165.182L191.225-165.182l0.069,0.163
				L191.225-165.182L191.225-165.182z M191.224-165.181c-0.133,0.055-0.17,0.166-0.252,0.386l0.333,0.123
				c0.047-0.125,0.046-0.178,0.059-0.184L191.224-165.181L191.224-165.181z M190.971-164.795l-0.046,0.123l0.106,0.08l0.106-0.142
				L190.971-164.795z M191.032-164.592c0.327,0.245,0.357,0.734,0.387,1.204l0.355-0.023c-0.034-0.548-0.071-1.12-0.53-1.466
				L191.032-164.592z M191.418-163.388c0.004,0.062,0.008,0.123,0.012,0.17l0.355-0.025c-0.005-0.064-0.008-0.116-0.011-0.166
				L191.418-163.388z M191.43-163.218l0.012,0.173l0.173-0.008l-0.009-0.178L191.43-163.218z M191.616-163.053
				c0.292-0.014,0.426-0.221,0.57-0.445l-0.298-0.191c-0.092,0.143-0.177,0.275-0.289,0.28L191.616-163.053L191.616-163.053z
				 M192.186-163.496c0.041-0.062,0.082-0.127,0.126-0.182l-0.277-0.22c-0.055,0.07-0.102,0.141-0.146,0.21L192.186-163.496
				L192.186-163.496z M192.346-163.827l-0.081-0.363l-0.23,0.291l0.138,0.11L192.346-163.827z M191.999-163.75
				c0.06,0.268,0.106,0.62,0.041,0.909l0.345,0.077c0.079-0.352,0.028-0.757-0.04-1.062L191.999-163.75z M192.04-162.843
				c-0.041,0.184-0.13,0.341-0.294,0.425l0.162,0.316c0.272-0.141,0.414-0.384,0.477-0.664L192.04-162.843L192.04-162.843z
				 M191.746-162.418l-0.141,0.073l0.055,0.148l0.166-0.062L191.746-162.418z M191.661-162.197c0.027,0.07,0.065,0.168,0.104,0.268
				l0.33-0.13c-0.03-0.078-0.061-0.157-0.1-0.262L191.661-162.197z M191.764-161.929c0.052,0.134,0.106,0.27,0.162,0.431
				l0.336-0.117c-0.051-0.144-0.11-0.295-0.169-0.444L191.764-161.929z M192.065-161.382l0.298,0.052l-0.1-0.285l-0.168,0.059
				L192.065-161.382L192.065-161.382z M192.125-161.731c-0.344-0.06-1.101-0.485-1.651-1.056l-0.256,0.246
				c0.6,0.623,1.452,1.091,1.848,1.159L192.125-161.731z M190.474-162.787c-0.199-0.206-0.368-0.43-0.474-0.657l-0.322,0.148
				c0.126,0.268,0.317,0.523,0.54,0.755L190.474-162.787z M190-163.444c-0.102-0.217-0.148-0.44-0.111-0.655l-0.349-0.059
				c-0.051,0.292,0.008,0.584,0.138,0.863L190-163.444z M189.889-164.1c0.034-0.195,0.139-0.391,0.337-0.583l-0.245-0.257
				c-0.257,0.248-0.395,0.512-0.441,0.78L189.889-164.1z M190.226-164.682l0.049-0.087l-0.172-0.042L190.226-164.682z
				 M190.275-164.769c0.045-0.184,0.085-0.338,0.13-0.479l-0.339-0.105c-0.045,0.145-0.087,0.308-0.134,0.498L190.275-164.769z
				 M190.405-165.248c0.041-0.134,0.087-0.254,0.145-0.373l-0.32-0.153c-0.064,0.134-0.116,0.27-0.164,0.422L190.405-165.248z
				 M190.55-165.621c0.127-0.266,0.33-0.428,0.562-0.502l-0.108-0.338c-0.323,0.103-0.601,0.325-0.775,0.688L190.55-165.621
				L190.55-165.621z M191.113-166.124c0.272-0.088,0.587-0.06,0.883,0.055l0.129-0.33c-0.369-0.145-0.77-0.175-1.12-0.062
				L191.113-166.124z M191.996-166.069l0.309,0.12l-0.07-0.323l-0.173,0.038L191.996-166.069z M192.234-166.271
				c-0.084-0.384-0.134-0.788-0.152-1.241l-0.355,0.012c0.018,0.475,0.071,0.898,0.159,1.303L192.234-166.271z M192.082-167.511
				c-0.016-0.455,0.001-0.964,0.052-1.562l-0.355-0.029c-0.052,0.607-0.07,1.13-0.052,1.604L192.082-167.511L192.082-167.511z
				 M192.135-169.075c0.012-0.152,0.029-0.293,0.046-0.42l-0.351-0.048c-0.022,0.159-0.039,0.306-0.051,0.439L192.135-169.075
				L192.135-169.075z M192.181-169.496c0.02-0.141,0.045-0.288,0.073-0.434l-0.348-0.066c-0.029,0.148-0.054,0.3-0.076,0.452
				L192.181-169.496z M192.253-169.928l-0.007-0.095l-0.167,0.061"/>
			<path id="path80" fill="#CCCC00" stroke="#333333" stroke-width="0.5" stroke-miterlimit="10" d="M213.514-167.361
				c-1.183-0.341-1.173-0.434-1.522-1.608C212.452-168.23,212.793-167.857,213.514-167.361"/>
			<path id="path106" fill="none" stroke="#333333" stroke-width="0.5" stroke-miterlimit="10" d="M213.251-160.369
				c-0.042-0.074-0.106-0.194-0.189-0.276c0.336-0.318,0.502-0.531,0.622-0.98c-0.38-0.188-0.759-0.377-1.14-0.566
				c-0.321-0.309-0.643-0.616-0.964-0.924c-0.423,0.227-0.528,0.402-0.733,0.838c-0.238-0.063-0.465-0.124-0.662-0.052
				c0.125-0.001,0.202,0.031,0.327,0.109c0.205,0.212,0.409,0.425,0.614,0.638c0.361,0.273,0.723,0.547,1.084,0.821
				c0.237,0.077,0.473,0.154,0.709,0.23C213.009-160.496,213.161-160.407,213.251-160.369"/>
			<g id="g112">
			</g>
			
				<path id="path136" fill="none" stroke="#333333" stroke-width="0.5" stroke-linecap="round" stroke-linejoin="round" stroke-miterlimit="10" d="
				M212.792-167.707c0.185,0.102,0.522,0.241,0.707,0.341c-0.191-0.032-0.532-0.102-0.723-0.134
				c-0.509-0.086-0.57-0.209-0.648-0.709c-0.038-0.238-0.088-0.53-0.126-0.766c0.1,0.267,0.22,0.578,0.336,0.834
				C212.461-167.875,212.53-167.849,212.792-167.707L212.792-167.707z M203.336-154.784c0.401,0.6,0.631,0.795,1.247,1.177
				C203.746-153.809,203.587-153.964,203.336-154.784z M203.204-156.107c0.701,1.409,1.231,1.927,2.698,2.62
				C204.243-153.895,203.756-154.184,203.204-156.107z M188.197-163.441c0.154,0.705,0.298,0.972,0.732,1.551
				C188.224-162.383,188.132-162.585,188.197-163.441z M203.905-175.248c-0.021,0.171-0.042,0.343-0.063,0.514
				c-0.039,0.31-0.038,0.562-0.013,0.874c0.023,0.302,0.048,0.605,0.071,0.905c-0.088-0.307-0.264-0.614-0.352-0.921
				c-0.035-0.123-0.064-0.223-0.081-0.312c-1.313-0.27-2.616-0.285-3.93-0.052c-0.084,0.486-0.186,0.993-0.272,1.356
				c-0.026-0.407-0.009-1.531-0.011-2.161c-0.002-0.488-0.023-0.655-0.274-1.07c-0.235-0.389-0.335-0.477-0.665-1.134
				c0.027-0.413,0.028-0.688-0.082-1.08c-0.183-0.653-2.03-0.147-2.516-0.013c-0.6,0.164-1.84,0.409-1.528,1.209
				c0.274,0.702,0.448,1.445,0.583,2.43c-1.099,1.584-2.121,3.753-2.317,5.675c-0.152,1.493-0.061,2.412,0.262,3.324
				c0.512,1.447,1.228,2.698,2.377,3.708c1.55,1.359,2.998,1.905,5.266,2.251c-0.545-0.61-1.085-1.255-1.673-1.948
				c-0.595-0.701-0.949-1.409-1.327-2.176c-0.522-1.059-0.511-1.462,0.181-2.391c0.597-0.801,0.919-1.162,1.18-1.945
				c-0.216-0.443-0.294-0.818-0.366-1.423c0.73-0.798,1.273-1.346,1.983-1.514c0.695-0.166,1.277-0.134,1.899,0.184
				c1.382,0.707,2.661,1.62,4.22,1.657c0.722,1.773,0.649,3.255,0.302,4.972c-0.237,1.172-0.331,2.283-0.405,3.477
				c-0.292-1.23-0.347-2.312-0.13-3.537c0.262-1.478,0.465-3.109-0.262-4.409c-1.41-0.108-2.619-0.966-3.89-1.623
				c-0.511-0.265-1.043-0.291-1.608-0.135c-0.525,0.145-0.88,0.491-1.445,1.145c-0.009,0.654,0.138,0.956,0.439,1.55
				c0.484,0.952,1.016,1.838,1.602,2.775c-0.716-0.864-1.395-1.588-1.959-2.455c-0.216,0.613-0.523,0.926-1.034,1.616
				c-0.498,0.675-0.551,0.97-0.178,1.752c0.375,0.785,0.693,1.477,1.331,2.166c1.103,1.191,2.113,2.516,3.319,3.688
				c0.655,0.638,0.92,0.616,1.789,0.747c0.785,0.12,1.552,0.27,2.352,0.455c-0.775-0.073-1.523-0.099-2.277-0.118
				c-0.008,0-0.016,0-0.023,0c0.741,0.947,1.172,1.475,2.377,1.998c2.965,1.288,4.849,1.427,7.178-0.53
				c0.603-0.509,1.131-1,1.744-1.438c-0.223-0.019-0.414-0.059-0.667-0.158c0.309,0.059,0.664,0,0.983-0.059
				c0.091-0.058,0.182-0.114,0.277-0.17c0.432-0.255,0.678-0.395,0.97-0.802c0.309-0.43,0.566-0.86,0.794-1.334
				c-0.148,0.053-0.273,0.098-0.385,0.13c-0.081,0.038-0.17,0.062-0.265,0.071c-0.187,0.019-0.366-0.028-0.515-0.12
				c-0.005-0.002-0.012-0.005-0.018-0.009c-0.238-0.116-0.609-0.248-0.857-0.289c0.127-0.045,0.406-0.059,0.538-0.009
				c0.017,0.007,0.035,0.013,0.054,0.017c-0.059-0.102-0.098-0.216-0.11-0.341c-0.016-0.164,0.017-0.323,0.088-0.459
				c0-0.001,0-0.002,0.001-0.002c0.022-0.053,0.053-0.102,0.087-0.136c-0.113-0.042-0.229-0.091-0.348-0.141
				c0.553,0.084,1.052,0.098,1.591,0.027c0.035-0.17,0.071-0.35,0.105-0.534c-0.067-0.005-0.134-0.01-0.201-0.016
				c-0.005-0.002-0.01-0.002-0.016-0.002c-0.255,0.203-0.54,0.17-0.928,0.08c-1.181-0.27-0.904-0.932-1.447-1.93
				c0.564,0.69,0.522,1.412,1.441,1.63c0.215,0.051,0.36,0.113,0.505,0.091c-0.261-0.13-0.487-0.348-0.577-0.602
				c-0.252-0.713-0.095-1.313-0.373-1.979c0.343,0.595,0.364,1.176,0.671,1.802c0.11,0.225,0.52,0.584,0.77,0.591
				c0.07,0.002,0.138,0.002,0.208,0.005c0.06-0.395,0.097-0.79,0.073-1.116c-0.042-0.595-0.197-1.48-0.29-1.817
				c0.311,0.4,0.452,1.247,0.589,1.843c0.143,0.621,0.107,1.366-0.018,2.033c-0.171,0.916,0.772,0.766,1.319,1.198
				c0.402,0.316,0.679,0.823,1.048,1.181c0.366,0.355,0.941-0.166,1.085-0.516c0.624-1.509,0.909-3.884,0.744-5.405
				c-0.185-1.708-1.01-3.571-2.516-4.412c-1.92-1.071-4.183-0.417-6.089,0.226c-0.408,0.137-0.691,0.337-1.048,0.562
				c0.098-0.439,0.142-0.903,0.012-1.341c-0.206-0.695-0.538-1.832,0.405-2.042c0.359-0.08,0.522-0.068,1.029,0.194
				c-0.41-0.093-0.617-0.07-0.899-0.018c-0.255,0.047-0.391,0.209-0.463,0.402c0.089-0.063,0.235-0.098,0.484-0.159
				c0.7-0.169,1.366,0.168,1.497,0.653c0.077,0.284,0.063,0.433,0.224,0.819c0.145-0.045,0.295-0.085,0.448-0.123
				c-0.086-0.284-0.173-0.566-0.259-0.848c-0.225-0.734-1.102-1.325-1.875-1.312c-0.715,0.013-1.168,0.461-1.662,0.9
				c-0.34,0.302-0.667,0.592-0.991,0.879c-0.891,0.281-1.603,0.609-2.43,1.22c0.587-0.691,0.987-1.073,1.806-1.416
				c-0.12-1.216-0.541-2.103-0.902-3.267c-0.163-0.526-1.45-2.634-1.807-2.84c-0.255-0.147-1.848-1.489-2.148-1.666
				c-0.223-0.296-0.419-0.705-0.755-0.884c-1.023-0.541-1.68,0.495-2.23,1.37c-0.251,0.398-0.946,1.546-0.34,1.868
				c0.573,0.303,0.895,0.52,1.48,0.905C203.661-174.939,203.809-175.091,203.905-175.248L203.905-175.248z M207.461-177.102
				c-0.517-0.418-1.388-1.159-1.557-1.252c-0.305-0.455-0.344-0.739-0.834-1.005c-1.459-0.789-2.234,0.127-3.097,1.458
				c-0.412,0.634-1.311,2.081-0.356,2.572c0.402,0.207,0.707,0.362,1.011,0.539c-1.002-0.123-1.984-0.126-3.006,0.028
				c0.018-0.123,0.034-0.241,0.046-0.348c0.067-0.559,0.088-0.73-0.215-1.18c-0.221-0.328-0.306-0.423-0.573-1.019
				c0.048-0.485,0.027-0.758-0.109-1.266c-0.304-1.127-2.41-0.509-3.269-0.277c-1.033,0.279-2.509,0.539-1.903,1.867
				c0.142,0.311,0.253,0.629,0.338,0.933c-0.903-0.4-2.159,0.448-2.756,1.048c-0.569,0.57-0.877,1.231-0.985,1.874
				c-0.091,0.546-0.008,0.544,0.383,0.93c0.357,0.353,0.713,0.706,1.07,1.06c0.144,0.392,0.288,0.784,0.432,1.177
				c-0.055,0.293-0.098,0.584-0.123,0.873c-0.103,1.205-0.069,2.064,0.104,2.854c-0.629-0.245-1.35-0.13-1.67,0.538
				c-0.122,0.253-0.195,0.512-0.287,0.887c-1.402,1.352,1.225,3.122,1.991,3.255c-0.087-0.248-0.184-0.477-0.268-0.702
				c0.52-0.269,0.455-1.036,0.345-1.53c-0.187,0.236-0.29,0.545-0.565,0.558c-0.041-0.558-0.034-1.175-0.47-1.503
				c0.129-0.345,0.123-0.345,0.489-0.204c0.521,0.201,0.913,0.648,1.308,1.084c0.425,0.827,0.97,1.564,1.719,2.227
				c1.841,1.634,3.582,2.167,6.384,2.614c0.373,0.389,0.759,0.764,1.173,1.13c0.56,0.495,0.924,0.598,1.455,0.625
				c0.877,1.173,1.568,1.991,2.998,2.594c2.998,1.262,5.065,1.323,7.471-0.663c0.795-0.655,1.473-1.345,2.348-1.894
				c0.442-0.277,0.759-0.476,1.094-0.875c0.422-0.503,0.766-1.005,1.005-1.652c0.31,0.127,0.663,0.248,0.948,0.491
				c0.368,0.315,0.602,0.841,0.943,1.188c0.453,0.459,1.486-0.095,1.715-0.534c0.777-1.488,1.096-4.232,0.93-5.863
				c-0.205-2.016-1.035-3.923-2.812-4.87c-1.208-0.645-2.829-0.705-4.216-0.442c-0.09-0.296-0.18-0.592-0.27-0.887
				c-0.27-0.887-1.323-1.612-2.243-1.655c-0.884-0.041-1.362,0.414-1.941,0.973c-0.304,0.293-0.608,0.584-0.912,0.877
				c-0.018-0.198-0.044-0.391-0.077-0.576c0.239-0.473,0.354-0.887,0.559-1.375c0.224-0.536,0.335-0.888,0.35-1.462
				c0.013-0.509,0.027-1.02,0.041-1.527c0.227-0.405,0.248-0.503,0.214-0.966c-0.07-0.973-0.606-1.066-1.5-1.062
				c-0.298,0.002-1.422-0.005-1.709,0.016C208.032-177.381,207.657-177.337,207.461-177.102z M210.475-171.789
				c-0.18-0.642-0.421-1.248-0.642-1.945c-0.209-0.659-1.28-2.569-1.91-3.03c0.123-0.091,0.348-0.127,0.749-0.163
				c0.284-0.023,1.402-0.03,1.684-0.034c0.619-0.011,0.853,0.036,0.916,0.741c0.031,0.345,0.004,0.409-0.168,0.711
				c-0.016,0.539-0.031,1.08-0.046,1.62c-0.014,0.511-0.113,0.805-0.314,1.28C210.623-172.323,210.558-172.057,210.475-171.789z
				 M191.632-162.965c0.139,0.016,0.225-0.058,0.333-0.165c-0.02,0.257-0.068,0.447-0.248,0.552
				c-0.012-0.041-0.024-0.084-0.036-0.127C191.66-162.787,191.644-162.875,191.632-162.965L191.632-162.965z M192.505-164.818
				c-0.1-0.259-0.192-0.525-0.28-0.801c-0.015-0.046-0.029-0.091-0.042-0.137c-0.528-0.225-1.223-0.367-1.488,0.188
				c-0.13,0.27-0.202,0.534-0.297,0.874c-0.87,0.902,0.431,2.091,1.139,2.518c-0.102-0.22-0.175-0.387-0.225-0.559
				c-0.215-0.745,0.098-1.409-0.578-1.948c0.318-0.641,0.303-0.896,1.041-0.6C192.061-165.168,192.296-165.008,192.505-164.818z
				 M192.302-170.883c0.4-1.385,1.082-2.745,1.838-3.89c-0.001-0.006-0.001-0.013-0.001-0.02c-0.047-0.197-0.102-0.387-0.216-0.541
				c-0.541-0.723-1.915,0.338-2.313,0.745c-0.434,0.445-0.726,0.97-0.795,1.463c-0.05,0.359-0.001,0.368,0.25,0.623
				c0.338,0.341,0.677,0.684,1.015,1.027C192.153-171.278,192.228-171.082,192.302-170.883L192.302-170.883z M217.887-159.768
				c0.077-0.077,0.139-0.166,0.182-0.266c0.023,0.021,0.048,0.041,0.074,0.061c-0.031,0.071-0.063,0.141-0.097,0.211
				C217.992-159.765,217.939-159.767,217.887-159.768z M211.268-162.259c-0.07,0.148-0.104,0.303-0.105,0.458
				c-0.259-0.208-0.542-0.404-0.834-0.517c0.404,0.361,0.952,1.211,1.351,1.48c0.451,0.305,1.063,0.245,1.589,0.489
				c-0.179-0.163-0.41-0.295-0.645-0.42c0.259-0.094,0.481-0.285,0.609-0.552c0.053-0.113,0.086-0.23,0.098-0.348
				c0.353,0.116,0.7,0.172,0.994,0.167c-1.048-0.295-2.164-0.983-2.933-1.895c0.086,0.238,0.207,0.453,0.352,0.645
				C211.543-162.648,211.374-162.479,211.268-162.259z M206.406-158.466c-0.579-0.226-1.107-0.395-1.671-0.537
				c-0.516-0.677-0.829-1.028-0.948-1.935c-0.14,0.893-0.169,1.059,0.229,1.724c-0.116-0.059-0.223-0.139-0.376-0.27
				c-0.555-0.474-1.278-2.339-1.568-3.006c0.184,0.803,0.759,2.809,1.35,3.395c0.388,0.384,0.477,0.376,1.026,0.427
				C205.101-158.607,205.753-158.539,206.406-158.466L206.406-158.466z M218.493-160.412c0.47-0.044,0.738-0.116,1.159,0.091
				c0.784,0.387,1.361,1.02,1.735,1.779c-0.229-0.904-0.69-1.672-1.645-2.012C219.272-160.721,218.97-160.549,218.493-160.412
				L218.493-160.412z M209.477-160.5c0.177,0.784,0.491,1.538,1.709,2.123C209.572-158.781,209.27-159.458,209.477-160.5z
				 M188.557-164.721c0.139,1.568,0.444,2.245,1.557,3.423C188.718-162.282,188.369-162.729,188.557-164.721"/>
			<path id="path138" fill="#FFFFFF" stroke="#333333" stroke-width="0.5" stroke-miterlimit="10" d="M211.479-162.512
				c-0.108,0.226-0.012,0.498,0.214,0.605c0.227,0.107,0.498,0.012,0.606-0.215c0.011-0.021,0.019-0.043,0.025-0.065
				c-0.216-0.16-0.414-0.349-0.58-0.568C211.634-162.709,211.534-162.628,211.479-162.512"/>
			<path id="path140" fill="#FFFFFF" stroke="#333333" stroke-width="0.5" stroke-miterlimit="10" d="M216.529-160.557
				c0.019,0.188,0.178,0.324,0.365,0.306c0.187-0.018,0.324-0.185,0.306-0.372c-0.004-0.04-0.014-0.077-0.03-0.111
				c-0.171-0.03-0.342-0.08-0.518-0.145C216.578-160.803,216.52-160.665,216.529-160.557"/>
		</g>
	</g>
	<g>
		<circle fill="#FFFFFF" stroke="#000000" stroke-miterlimit="10" cx="219.678" cy="250.899" r="25"/>
		<g opacity="0.8">
			<g>
				
					<line fill="none" stroke="#333333" stroke-width="4" stroke-linecap="round" stroke-miterlimit="10" x1="206" y1="241" x2="234" y2="241"/>
				
					<line fill="none" stroke="#333333" stroke-width="4" stroke-linecap="round" stroke-miterlimit="10" x1="206" y1="248" x2="234" y2="248"/>
				
					<line fill="none" stroke="#333333" stroke-width="4" stroke-linecap="round" stroke-miterlimit="10" x1="206" y1="254" x2="234" y2="254"/>
				
					<line fill="none" stroke="#333333" stroke-width="4" stroke-linecap="round" stroke-miterlimit="10" x1="206" y1="261" x2="234" y2="261"/>
			</g>
			<g>
				<path fill="#FFFFFF" stroke="#1E1E1E" stroke-linecap="round" stroke-miterlimit="10" d="M236.5,261.145
					c0,0.885-0.853,1.355-1.872,1.355h-3.502c-1.02,0-2.625-0.471-2.625-1.355v-2.824c0-0.885,1.606-0.818,2.625-0.818h3.502
					c1.019,0,1.872-0.064,1.872,0.818V261.145z"/>
				<path fill="none" stroke="#1E1E1E" stroke-linecap="round" stroke-miterlimit="10" d="M235.144,256.874
					c-0.444-1.907-1.384-3.226-2.473-3.226c-1.109,0-2.065,1.367-2.498,3.336"/>
				<circle fill="#FFFFFF" stroke="#1E1E1E" stroke-linecap="round" stroke-miterlimit="10" cx="232.658" cy="260.836" r="0.739"/>
			</g>
		</g>
	</g>
</g>
<rect x="438.5" y="319.5" fill="#FFFFFF" stroke="#000000" stroke-miterlimit="10" width="39" height="39"/>
<rect x="337.5" y="88.5" fill="#FFFFFF" stroke="#000000" stroke-miterlimit="10" width="39" height="39"/>
<polygon fill="#FFFFFF" stroke="#000000" stroke-miterlimit="10" points="603.5,91.5 564.5,91.5 583.667,52.5 "/>
</svg>
